G04 MADE WITH FRITZING*
G04 WWW.FRITZING.ORG*
G04 DOUBLE SIDED*
G04 HOLES PLATED*
G04 CONTOUR ON CENTER OF CONTOUR VECTOR*
%ASAXBY*%
%FSLAX23Y23*%
%MOIN*%
%OFA0B0*%
%SFA1.0B1.0*%
%ADD10C,0.096614*%
%ADD11C,0.092000*%
%ADD12C,0.088000*%
%ADD13C,0.084000*%
%ADD14C,0.085000*%
%ADD15R,0.092000X0.092000*%
%ADD16R,0.084000X0.084000*%
%ADD17R,0.085000X0.085000*%
%LNMASK0*%
G90*
G70*
G54D10*
X1085Y109D03*
X1085Y1309D03*
X85Y1309D03*
G54D11*
X685Y1009D03*
X585Y1009D03*
X485Y1009D03*
G54D12*
X785Y1309D03*
X785Y1309D03*
X785Y1209D03*
X585Y1309D03*
X585Y1309D03*
X485Y1309D03*
X585Y1209D03*
X585Y1209D03*
X485Y1209D03*
G54D13*
X985Y409D03*
X985Y309D03*
X985Y209D03*
X885Y409D03*
X885Y309D03*
X885Y209D03*
G54D14*
X885Y609D03*
X885Y865D03*
X1062Y609D03*
X1062Y865D03*
X385Y409D03*
X685Y409D03*
X385Y309D03*
X685Y309D03*
X385Y209D03*
X685Y209D03*
X385Y109D03*
X685Y109D03*
X85Y809D03*
X185Y809D03*
X285Y809D03*
X685Y709D03*
X585Y709D03*
X485Y709D03*
X185Y609D03*
X185Y209D03*
X285Y709D03*
X285Y309D03*
G54D15*
X685Y1009D03*
G54D16*
X885Y409D03*
G54D17*
X385Y409D03*
G04 End of Mask0*
M02*