G04 MADE WITH FRITZING*
G04 WWW.FRITZING.ORG*
G04 DOUBLE SIDED*
G04 HOLES PLATED*
G04 CONTOUR ON CENTER OF CONTOUR VECTOR*
%ASAXBY*%
%FSLAX23Y23*%
%MOIN*%
%OFA0B0*%
%SFA1.0B1.0*%
%ADD10C,0.082000*%
%ADD11C,0.078000*%
%ADD12C,0.074000*%
%ADD13C,0.075000*%
%ADD14R,0.082000X0.082000*%
%ADD15R,0.074000X0.074000*%
%ADD16R,0.075000X0.075000*%
%ADD17C,0.024000*%
%LNCOPPER1*%
G90*
G70*
G54D10*
X685Y1009D03*
X585Y1009D03*
X485Y1009D03*
G54D11*
X785Y1309D03*
X785Y1309D03*
X785Y1209D03*
X585Y1309D03*
X585Y1309D03*
X485Y1309D03*
X585Y1209D03*
X585Y1209D03*
X485Y1209D03*
G54D12*
X985Y409D03*
X985Y309D03*
X985Y209D03*
X885Y409D03*
X885Y309D03*
X885Y209D03*
G54D13*
X885Y609D03*
X885Y865D03*
X1062Y609D03*
X1062Y865D03*
X385Y409D03*
X685Y409D03*
X385Y309D03*
X685Y309D03*
X385Y209D03*
X685Y209D03*
X385Y109D03*
X685Y109D03*
X85Y809D03*
X185Y809D03*
X285Y809D03*
X685Y709D03*
X585Y709D03*
X485Y709D03*
X185Y609D03*
X185Y209D03*
X285Y709D03*
X285Y309D03*
G54D14*
X685Y1009D03*
G54D15*
X885Y409D03*
G54D16*
X385Y409D03*
G54D17*
X954Y309D02*
X916Y309D01*
D02*
X954Y209D02*
X916Y209D01*
D02*
X787Y310D02*
X787Y411D01*
D02*
X787Y411D02*
X854Y410D01*
D02*
X787Y207D02*
X787Y310D01*
D02*
X714Y209D02*
X787Y208D01*
D02*
X1085Y309D02*
X1016Y309D01*
D02*
X1085Y509D02*
X1085Y309D01*
D02*
X685Y509D02*
X1085Y509D01*
D02*
X685Y438D02*
X685Y509D01*
D02*
X385Y709D02*
X314Y709D01*
D02*
X585Y509D02*
X385Y509D01*
D02*
X385Y509D02*
X385Y709D01*
D02*
X585Y681D02*
X585Y509D01*
D02*
X285Y1209D02*
X285Y838D01*
D02*
X455Y1209D02*
X285Y1209D01*
D02*
X755Y1309D02*
X615Y1309D01*
D02*
X555Y1309D02*
X515Y1309D01*
D02*
X585Y1041D02*
X585Y1179D01*
G04 End of Copper1*
M02*