; NON-PLATED HOLES START AT T1
; THROUGH (PLATED) HOLES START AT T100
M48
INCH
T1C0.086614
T100C0.042000
T101C0.040000
T102C0.035000
T103C0.038000
%
T1
X010850Y001093
X000850Y013093
X010850Y013093
T100
X006850Y010093
X005850Y010093
X004850Y010093
T101
X008850Y003093
X009850Y004093
X008850Y004093
X009850Y002093
X008850Y002093
X009850Y003093
T102
X006850Y003093
X001850Y002093
X005850Y007093
X003850Y003093
X004850Y007093
X002850Y003093
X010622Y006093
X008850Y006093
X006850Y002093
X002850Y008093
X000850Y008093
X003850Y002093
X006850Y007093
X001850Y006093
X006850Y004093
X010622Y008652
X006850Y001093
X002850Y007093
X003850Y004093
X008850Y008652
X003850Y001093
X001850Y008093
T103
X004850Y013093
X005850Y012093
X005850Y013093
X007850Y012093
X007850Y013093
X004850Y012093
T00
M30
