G04 MADE WITH FRITZING*
G04 WWW.FRITZING.ORG*
G04 DOUBLE SIDED*
G04 HOLES PLATED*
G04 CONTOUR ON CENTER OF CONTOUR VECTOR*
%ASAXBY*%
%FSLAX23Y23*%
%MOIN*%
%OFA0B0*%
%SFA1.0B1.0*%
%ADD10C,0.082000*%
%ADD11C,0.078000*%
%ADD12C,0.074000*%
%ADD13C,0.075000*%
%ADD14R,0.082000X0.082000*%
%ADD15R,0.074000X0.074000*%
%ADD16R,0.075000X0.075000*%
%ADD17C,0.024000*%
%LNCOPPER0*%
G90*
G70*
G54D10*
X685Y1009D03*
X585Y1009D03*
X485Y1009D03*
G54D11*
X785Y1309D03*
X785Y1309D03*
X785Y1209D03*
X585Y1309D03*
X585Y1309D03*
X485Y1309D03*
X585Y1209D03*
X585Y1209D03*
X485Y1209D03*
G54D12*
X985Y409D03*
X985Y309D03*
X985Y209D03*
X885Y409D03*
X885Y309D03*
X885Y209D03*
G54D13*
X885Y609D03*
X885Y865D03*
X1062Y609D03*
X1062Y865D03*
X385Y409D03*
X685Y409D03*
X385Y309D03*
X685Y309D03*
X385Y209D03*
X685Y209D03*
X385Y109D03*
X685Y109D03*
X85Y809D03*
X185Y809D03*
X285Y809D03*
X685Y709D03*
X585Y709D03*
X485Y709D03*
X185Y609D03*
X185Y209D03*
X285Y709D03*
X285Y309D03*
G54D14*
X685Y1009D03*
G54D15*
X885Y409D03*
G54D16*
X385Y409D03*
G54D17*
X384Y310D02*
X314Y309D01*
D02*
X357Y317D02*
X384Y310D01*
D02*
X384Y208D02*
X214Y209D01*
D02*
X371Y184D02*
X384Y208D01*
D02*
X985Y509D02*
X787Y509D01*
D02*
X787Y310D02*
X714Y309D01*
D02*
X787Y509D02*
X787Y310D01*
D02*
X985Y440D02*
X985Y509D01*
D02*
X85Y109D02*
X356Y109D01*
D02*
X85Y781D02*
X85Y109D01*
D02*
X185Y781D02*
X185Y609D01*
D02*
X85Y1009D02*
X85Y809D01*
D02*
X453Y1009D02*
X85Y1009D01*
D02*
X685Y709D02*
X685Y977D01*
D02*
X485Y809D02*
X585Y809D01*
D02*
X585Y809D02*
X585Y1009D01*
D02*
X485Y738D02*
X485Y809D01*
D02*
X555Y1309D02*
X515Y1309D01*
D02*
X755Y1309D02*
X615Y1309D01*
D02*
X1085Y209D02*
X985Y209D01*
D02*
X1064Y581D02*
X1085Y209D01*
D02*
X585Y109D02*
X656Y109D01*
D02*
X585Y609D02*
X585Y109D01*
D02*
X856Y609D02*
X585Y609D01*
D02*
X985Y1109D02*
X1054Y893D01*
D02*
X785Y1109D02*
X985Y1109D01*
D02*
X785Y1209D02*
X785Y1109D01*
D02*
X785Y1109D02*
X785Y1179D01*
D02*
X485Y1041D02*
X485Y1109D01*
D02*
X485Y1109D02*
X785Y1109D01*
G04 End of Copper0*
M02*