G04 MADE WITH FRITZING*
G04 WWW.FRITZING.ORG*
G04 DOUBLE SIDED*
G04 HOLES PLATED*
G04 CONTOUR ON CENTER OF CONTOUR VECTOR*
%ASAXBY*%
%FSLAX23Y23*%
%MOIN*%
%OFA0B0*%
%SFA1.0B1.0*%
%ADD10C,0.010000*%
%ADD11C,0.005000*%
%ADD12R,0.001000X0.001000*%
%LNSILK1*%
G90*
G70*
G54D10*
X785Y889D02*
X385Y889D01*
D02*
X385Y889D02*
X385Y1069D01*
D02*
X385Y1069D02*
X785Y1069D01*
D02*
X785Y1069D02*
X785Y889D01*
D02*
X785Y889D02*
X385Y889D01*
D02*
X385Y889D02*
X385Y949D01*
D02*
X385Y949D02*
X785Y949D01*
D02*
X785Y949D02*
X785Y889D01*
G54D11*
D02*
X655Y889D02*
X655Y949D01*
D02*
X515Y889D02*
X515Y949D01*
G54D10*
D02*
X835Y1359D02*
X735Y1359D01*
D02*
X735Y1359D02*
X735Y1159D01*
D02*
X735Y1159D02*
X835Y1159D01*
D02*
X835Y1159D02*
X835Y1359D01*
G54D11*
D02*
X800Y1359D02*
X835Y1324D01*
G54D10*
D02*
X635Y1259D02*
X635Y1359D01*
D02*
X635Y1359D02*
X435Y1359D01*
D02*
X435Y1359D02*
X435Y1259D01*
D02*
X435Y1259D02*
X635Y1259D01*
G54D11*
D02*
X635Y1294D02*
X600Y1259D01*
G54D10*
D02*
X635Y1159D02*
X635Y1259D01*
D02*
X635Y1259D02*
X435Y1259D01*
D02*
X435Y1259D02*
X435Y1159D01*
D02*
X435Y1159D02*
X635Y1159D01*
G54D11*
D02*
X635Y1194D02*
X600Y1159D01*
G54D10*
D02*
X1013Y619D02*
X934Y619D01*
D02*
X1092Y816D02*
X1092Y649D01*
D02*
X856Y816D02*
X856Y649D01*
D02*
X1013Y855D02*
X934Y855D01*
D02*
X993Y737D02*
X954Y737D01*
D02*
X974Y718D02*
X974Y757D01*
D02*
X335Y459D02*
X335Y59D01*
D02*
X335Y59D02*
X735Y59D01*
D02*
X735Y59D02*
X735Y459D01*
D02*
X335Y459D02*
X485Y459D01*
D02*
X585Y459D02*
X735Y459D01*
D02*
X115Y873D02*
X255Y873D01*
D02*
X655Y645D02*
X515Y645D01*
D02*
X218Y500D02*
X218Y300D01*
D02*
X218Y300D02*
X152Y300D01*
D02*
X152Y300D02*
X152Y500D01*
D02*
X152Y500D02*
X218Y500D01*
D02*
X318Y600D02*
X318Y400D01*
D02*
X318Y400D02*
X252Y400D01*
D02*
X252Y400D02*
X252Y600D01*
D02*
X252Y600D02*
X318Y600D01*
G54D12*
X0Y1422D02*
X1179Y1422D01*
X0Y1421D02*
X1179Y1421D01*
X0Y1420D02*
X1179Y1420D01*
X0Y1419D02*
X1179Y1419D01*
X0Y1418D02*
X1179Y1418D01*
X0Y1417D02*
X1179Y1417D01*
X0Y1416D02*
X1179Y1416D01*
X0Y1415D02*
X1179Y1415D01*
X0Y1414D02*
X7Y1414D01*
X1172Y1414D02*
X1179Y1414D01*
X0Y1413D02*
X7Y1413D01*
X1172Y1413D02*
X1179Y1413D01*
X0Y1412D02*
X7Y1412D01*
X1172Y1412D02*
X1179Y1412D01*
X0Y1411D02*
X7Y1411D01*
X1172Y1411D02*
X1179Y1411D01*
X0Y1410D02*
X7Y1410D01*
X1172Y1410D02*
X1179Y1410D01*
X0Y1409D02*
X7Y1409D01*
X1172Y1409D02*
X1179Y1409D01*
X0Y1408D02*
X7Y1408D01*
X1172Y1408D02*
X1179Y1408D01*
X0Y1407D02*
X7Y1407D01*
X1172Y1407D02*
X1179Y1407D01*
X0Y1406D02*
X7Y1406D01*
X1172Y1406D02*
X1179Y1406D01*
X0Y1405D02*
X7Y1405D01*
X1172Y1405D02*
X1179Y1405D01*
X0Y1404D02*
X7Y1404D01*
X1172Y1404D02*
X1179Y1404D01*
X0Y1403D02*
X7Y1403D01*
X1172Y1403D02*
X1179Y1403D01*
X0Y1402D02*
X7Y1402D01*
X1172Y1402D02*
X1179Y1402D01*
X0Y1401D02*
X7Y1401D01*
X1172Y1401D02*
X1179Y1401D01*
X0Y1400D02*
X7Y1400D01*
X1172Y1400D02*
X1179Y1400D01*
X0Y1399D02*
X7Y1399D01*
X1172Y1399D02*
X1179Y1399D01*
X0Y1398D02*
X7Y1398D01*
X1172Y1398D02*
X1179Y1398D01*
X0Y1397D02*
X7Y1397D01*
X1172Y1397D02*
X1179Y1397D01*
X0Y1396D02*
X7Y1396D01*
X1172Y1396D02*
X1179Y1396D01*
X0Y1395D02*
X7Y1395D01*
X1172Y1395D02*
X1179Y1395D01*
X0Y1394D02*
X7Y1394D01*
X1172Y1394D02*
X1179Y1394D01*
X0Y1393D02*
X7Y1393D01*
X1172Y1393D02*
X1179Y1393D01*
X0Y1392D02*
X7Y1392D01*
X1172Y1392D02*
X1179Y1392D01*
X0Y1391D02*
X7Y1391D01*
X1172Y1391D02*
X1179Y1391D01*
X0Y1390D02*
X7Y1390D01*
X1172Y1390D02*
X1179Y1390D01*
X0Y1389D02*
X7Y1389D01*
X1172Y1389D02*
X1179Y1389D01*
X0Y1388D02*
X7Y1388D01*
X1172Y1388D02*
X1179Y1388D01*
X0Y1387D02*
X7Y1387D01*
X1172Y1387D02*
X1179Y1387D01*
X0Y1386D02*
X7Y1386D01*
X1172Y1386D02*
X1179Y1386D01*
X0Y1385D02*
X7Y1385D01*
X1172Y1385D02*
X1179Y1385D01*
X0Y1384D02*
X7Y1384D01*
X1172Y1384D02*
X1179Y1384D01*
X0Y1383D02*
X7Y1383D01*
X1172Y1383D02*
X1179Y1383D01*
X0Y1382D02*
X7Y1382D01*
X1172Y1382D02*
X1179Y1382D01*
X0Y1381D02*
X7Y1381D01*
X1172Y1381D02*
X1179Y1381D01*
X0Y1380D02*
X7Y1380D01*
X1172Y1380D02*
X1179Y1380D01*
X0Y1379D02*
X7Y1379D01*
X1172Y1379D02*
X1179Y1379D01*
X0Y1378D02*
X7Y1378D01*
X1172Y1378D02*
X1179Y1378D01*
X0Y1377D02*
X7Y1377D01*
X1172Y1377D02*
X1179Y1377D01*
X0Y1376D02*
X7Y1376D01*
X1172Y1376D02*
X1179Y1376D01*
X0Y1375D02*
X7Y1375D01*
X1172Y1375D02*
X1179Y1375D01*
X0Y1374D02*
X7Y1374D01*
X1172Y1374D02*
X1179Y1374D01*
X0Y1373D02*
X7Y1373D01*
X1172Y1373D02*
X1179Y1373D01*
X0Y1372D02*
X7Y1372D01*
X1172Y1372D02*
X1179Y1372D01*
X0Y1371D02*
X7Y1371D01*
X1172Y1371D02*
X1179Y1371D01*
X0Y1370D02*
X7Y1370D01*
X1172Y1370D02*
X1179Y1370D01*
X0Y1369D02*
X7Y1369D01*
X1172Y1369D02*
X1179Y1369D01*
X0Y1368D02*
X7Y1368D01*
X1172Y1368D02*
X1179Y1368D01*
X0Y1367D02*
X7Y1367D01*
X1172Y1367D02*
X1179Y1367D01*
X0Y1366D02*
X7Y1366D01*
X1172Y1366D02*
X1179Y1366D01*
X0Y1365D02*
X7Y1365D01*
X1172Y1365D02*
X1179Y1365D01*
X0Y1364D02*
X7Y1364D01*
X1172Y1364D02*
X1179Y1364D01*
X0Y1363D02*
X7Y1363D01*
X1172Y1363D02*
X1179Y1363D01*
X0Y1362D02*
X7Y1362D01*
X1172Y1362D02*
X1179Y1362D01*
X0Y1361D02*
X7Y1361D01*
X1172Y1361D02*
X1179Y1361D01*
X0Y1360D02*
X7Y1360D01*
X1172Y1360D02*
X1179Y1360D01*
X0Y1359D02*
X7Y1359D01*
X1172Y1359D02*
X1179Y1359D01*
X0Y1358D02*
X7Y1358D01*
X1172Y1358D02*
X1179Y1358D01*
X0Y1357D02*
X7Y1357D01*
X1172Y1357D02*
X1179Y1357D01*
X0Y1356D02*
X7Y1356D01*
X1172Y1356D02*
X1179Y1356D01*
X0Y1355D02*
X7Y1355D01*
X1172Y1355D02*
X1179Y1355D01*
X0Y1354D02*
X7Y1354D01*
X1172Y1354D02*
X1179Y1354D01*
X0Y1353D02*
X7Y1353D01*
X1172Y1353D02*
X1179Y1353D01*
X0Y1352D02*
X7Y1352D01*
X1172Y1352D02*
X1179Y1352D01*
X0Y1351D02*
X7Y1351D01*
X1172Y1351D02*
X1179Y1351D01*
X0Y1350D02*
X7Y1350D01*
X1172Y1350D02*
X1179Y1350D01*
X0Y1349D02*
X7Y1349D01*
X1172Y1349D02*
X1179Y1349D01*
X0Y1348D02*
X7Y1348D01*
X1172Y1348D02*
X1179Y1348D01*
X0Y1347D02*
X7Y1347D01*
X1172Y1347D02*
X1179Y1347D01*
X0Y1346D02*
X7Y1346D01*
X1172Y1346D02*
X1179Y1346D01*
X0Y1345D02*
X7Y1345D01*
X1172Y1345D02*
X1179Y1345D01*
X0Y1344D02*
X7Y1344D01*
X897Y1344D02*
X897Y1344D01*
X1172Y1344D02*
X1179Y1344D01*
X0Y1343D02*
X7Y1343D01*
X894Y1343D02*
X899Y1343D01*
X1172Y1343D02*
X1179Y1343D01*
X0Y1342D02*
X7Y1342D01*
X893Y1342D02*
X900Y1342D01*
X1172Y1342D02*
X1179Y1342D01*
X0Y1341D02*
X7Y1341D01*
X892Y1341D02*
X901Y1341D01*
X1172Y1341D02*
X1179Y1341D01*
X0Y1340D02*
X7Y1340D01*
X892Y1340D02*
X901Y1340D01*
X1172Y1340D02*
X1179Y1340D01*
X0Y1339D02*
X7Y1339D01*
X892Y1339D02*
X901Y1339D01*
X1172Y1339D02*
X1179Y1339D01*
X0Y1338D02*
X7Y1338D01*
X892Y1338D02*
X901Y1338D01*
X1172Y1338D02*
X1179Y1338D01*
X0Y1337D02*
X7Y1337D01*
X892Y1337D02*
X901Y1337D01*
X1172Y1337D02*
X1179Y1337D01*
X0Y1336D02*
X7Y1336D01*
X892Y1336D02*
X901Y1336D01*
X1172Y1336D02*
X1179Y1336D01*
X0Y1335D02*
X7Y1335D01*
X892Y1335D02*
X901Y1335D01*
X1172Y1335D02*
X1179Y1335D01*
X0Y1334D02*
X7Y1334D01*
X892Y1334D02*
X901Y1334D01*
X1172Y1334D02*
X1179Y1334D01*
X0Y1333D02*
X7Y1333D01*
X892Y1333D02*
X901Y1333D01*
X1172Y1333D02*
X1179Y1333D01*
X0Y1332D02*
X7Y1332D01*
X892Y1332D02*
X901Y1332D01*
X1172Y1332D02*
X1179Y1332D01*
X0Y1331D02*
X7Y1331D01*
X892Y1331D02*
X901Y1331D01*
X1172Y1331D02*
X1179Y1331D01*
X0Y1330D02*
X7Y1330D01*
X892Y1330D02*
X901Y1330D01*
X1172Y1330D02*
X1179Y1330D01*
X0Y1329D02*
X7Y1329D01*
X892Y1329D02*
X901Y1329D01*
X1172Y1329D02*
X1179Y1329D01*
X0Y1328D02*
X7Y1328D01*
X892Y1328D02*
X901Y1328D01*
X1172Y1328D02*
X1179Y1328D01*
X0Y1327D02*
X7Y1327D01*
X892Y1327D02*
X901Y1327D01*
X1172Y1327D02*
X1179Y1327D01*
X0Y1326D02*
X7Y1326D01*
X892Y1326D02*
X901Y1326D01*
X1172Y1326D02*
X1179Y1326D01*
X0Y1325D02*
X7Y1325D01*
X892Y1325D02*
X901Y1325D01*
X1172Y1325D02*
X1179Y1325D01*
X0Y1324D02*
X7Y1324D01*
X876Y1324D02*
X918Y1324D01*
X1172Y1324D02*
X1179Y1324D01*
X0Y1323D02*
X7Y1323D01*
X874Y1323D02*
X919Y1323D01*
X1172Y1323D02*
X1179Y1323D01*
X0Y1322D02*
X7Y1322D01*
X873Y1322D02*
X920Y1322D01*
X1172Y1322D02*
X1179Y1322D01*
X0Y1321D02*
X7Y1321D01*
X873Y1321D02*
X921Y1321D01*
X1172Y1321D02*
X1179Y1321D01*
X0Y1320D02*
X7Y1320D01*
X872Y1320D02*
X921Y1320D01*
X1172Y1320D02*
X1179Y1320D01*
X0Y1319D02*
X7Y1319D01*
X872Y1319D02*
X921Y1319D01*
X1172Y1319D02*
X1179Y1319D01*
X0Y1318D02*
X7Y1318D01*
X872Y1318D02*
X921Y1318D01*
X1172Y1318D02*
X1179Y1318D01*
X0Y1317D02*
X7Y1317D01*
X873Y1317D02*
X920Y1317D01*
X1172Y1317D02*
X1179Y1317D01*
X0Y1316D02*
X7Y1316D01*
X873Y1316D02*
X920Y1316D01*
X1172Y1316D02*
X1179Y1316D01*
X0Y1315D02*
X7Y1315D01*
X875Y1315D02*
X919Y1315D01*
X1172Y1315D02*
X1179Y1315D01*
X0Y1314D02*
X7Y1314D01*
X892Y1314D02*
X901Y1314D01*
X1172Y1314D02*
X1179Y1314D01*
X0Y1313D02*
X7Y1313D01*
X892Y1313D02*
X901Y1313D01*
X1172Y1313D02*
X1179Y1313D01*
X0Y1312D02*
X7Y1312D01*
X892Y1312D02*
X901Y1312D01*
X1172Y1312D02*
X1179Y1312D01*
X0Y1311D02*
X7Y1311D01*
X892Y1311D02*
X901Y1311D01*
X1172Y1311D02*
X1179Y1311D01*
X0Y1310D02*
X7Y1310D01*
X892Y1310D02*
X901Y1310D01*
X1172Y1310D02*
X1179Y1310D01*
X0Y1309D02*
X7Y1309D01*
X892Y1309D02*
X901Y1309D01*
X1172Y1309D02*
X1179Y1309D01*
X0Y1308D02*
X7Y1308D01*
X892Y1308D02*
X901Y1308D01*
X1172Y1308D02*
X1179Y1308D01*
X0Y1307D02*
X7Y1307D01*
X892Y1307D02*
X901Y1307D01*
X1172Y1307D02*
X1179Y1307D01*
X0Y1306D02*
X7Y1306D01*
X892Y1306D02*
X901Y1306D01*
X1172Y1306D02*
X1179Y1306D01*
X0Y1305D02*
X7Y1305D01*
X892Y1305D02*
X901Y1305D01*
X1172Y1305D02*
X1179Y1305D01*
X0Y1304D02*
X7Y1304D01*
X892Y1304D02*
X901Y1304D01*
X1172Y1304D02*
X1179Y1304D01*
X0Y1303D02*
X7Y1303D01*
X892Y1303D02*
X901Y1303D01*
X1172Y1303D02*
X1179Y1303D01*
X0Y1302D02*
X7Y1302D01*
X892Y1302D02*
X901Y1302D01*
X1172Y1302D02*
X1179Y1302D01*
X0Y1301D02*
X7Y1301D01*
X892Y1301D02*
X901Y1301D01*
X1172Y1301D02*
X1179Y1301D01*
X0Y1300D02*
X7Y1300D01*
X892Y1300D02*
X901Y1300D01*
X1172Y1300D02*
X1179Y1300D01*
X0Y1299D02*
X7Y1299D01*
X892Y1299D02*
X901Y1299D01*
X1172Y1299D02*
X1179Y1299D01*
X0Y1298D02*
X7Y1298D01*
X892Y1298D02*
X901Y1298D01*
X1172Y1298D02*
X1179Y1298D01*
X0Y1297D02*
X7Y1297D01*
X893Y1297D02*
X900Y1297D01*
X1172Y1297D02*
X1179Y1297D01*
X0Y1296D02*
X7Y1296D01*
X893Y1296D02*
X900Y1296D01*
X1172Y1296D02*
X1179Y1296D01*
X0Y1295D02*
X7Y1295D01*
X895Y1295D02*
X898Y1295D01*
X1172Y1295D02*
X1179Y1295D01*
X0Y1294D02*
X7Y1294D01*
X1172Y1294D02*
X1179Y1294D01*
X0Y1293D02*
X7Y1293D01*
X1172Y1293D02*
X1179Y1293D01*
X0Y1292D02*
X7Y1292D01*
X1172Y1292D02*
X1179Y1292D01*
X0Y1291D02*
X7Y1291D01*
X1172Y1291D02*
X1179Y1291D01*
X0Y1290D02*
X7Y1290D01*
X1172Y1290D02*
X1179Y1290D01*
X0Y1289D02*
X7Y1289D01*
X1172Y1289D02*
X1179Y1289D01*
X0Y1288D02*
X7Y1288D01*
X1172Y1288D02*
X1179Y1288D01*
X0Y1287D02*
X7Y1287D01*
X1172Y1287D02*
X1179Y1287D01*
X0Y1286D02*
X7Y1286D01*
X1172Y1286D02*
X1179Y1286D01*
X0Y1285D02*
X7Y1285D01*
X1172Y1285D02*
X1179Y1285D01*
X0Y1284D02*
X7Y1284D01*
X1172Y1284D02*
X1179Y1284D01*
X0Y1283D02*
X7Y1283D01*
X1172Y1283D02*
X1179Y1283D01*
X0Y1282D02*
X7Y1282D01*
X1172Y1282D02*
X1179Y1282D01*
X0Y1281D02*
X7Y1281D01*
X1172Y1281D02*
X1179Y1281D01*
X0Y1280D02*
X7Y1280D01*
X1172Y1280D02*
X1179Y1280D01*
X0Y1279D02*
X7Y1279D01*
X1172Y1279D02*
X1179Y1279D01*
X0Y1278D02*
X7Y1278D01*
X1172Y1278D02*
X1179Y1278D01*
X0Y1277D02*
X7Y1277D01*
X1172Y1277D02*
X1179Y1277D01*
X0Y1276D02*
X7Y1276D01*
X1172Y1276D02*
X1179Y1276D01*
X0Y1275D02*
X7Y1275D01*
X1172Y1275D02*
X1179Y1275D01*
X0Y1274D02*
X7Y1274D01*
X1172Y1274D02*
X1179Y1274D01*
X0Y1273D02*
X7Y1273D01*
X1172Y1273D02*
X1179Y1273D01*
X0Y1272D02*
X7Y1272D01*
X1172Y1272D02*
X1179Y1272D01*
X0Y1271D02*
X7Y1271D01*
X1172Y1271D02*
X1179Y1271D01*
X0Y1270D02*
X7Y1270D01*
X1172Y1270D02*
X1179Y1270D01*
X0Y1269D02*
X7Y1269D01*
X1172Y1269D02*
X1179Y1269D01*
X0Y1268D02*
X7Y1268D01*
X1172Y1268D02*
X1179Y1268D01*
X0Y1267D02*
X7Y1267D01*
X1172Y1267D02*
X1179Y1267D01*
X0Y1266D02*
X7Y1266D01*
X1172Y1266D02*
X1179Y1266D01*
X0Y1265D02*
X7Y1265D01*
X1172Y1265D02*
X1179Y1265D01*
X0Y1264D02*
X7Y1264D01*
X1172Y1264D02*
X1179Y1264D01*
X0Y1263D02*
X7Y1263D01*
X1172Y1263D02*
X1179Y1263D01*
X0Y1262D02*
X7Y1262D01*
X1172Y1262D02*
X1179Y1262D01*
X0Y1261D02*
X7Y1261D01*
X1172Y1261D02*
X1179Y1261D01*
X0Y1260D02*
X7Y1260D01*
X1172Y1260D02*
X1179Y1260D01*
X0Y1259D02*
X7Y1259D01*
X1172Y1259D02*
X1179Y1259D01*
X0Y1258D02*
X7Y1258D01*
X1172Y1258D02*
X1179Y1258D01*
X0Y1257D02*
X7Y1257D01*
X1172Y1257D02*
X1179Y1257D01*
X0Y1256D02*
X7Y1256D01*
X1172Y1256D02*
X1179Y1256D01*
X0Y1255D02*
X7Y1255D01*
X1172Y1255D02*
X1179Y1255D01*
X0Y1254D02*
X7Y1254D01*
X1172Y1254D02*
X1179Y1254D01*
X0Y1253D02*
X7Y1253D01*
X1172Y1253D02*
X1179Y1253D01*
X0Y1252D02*
X7Y1252D01*
X1172Y1252D02*
X1179Y1252D01*
X0Y1251D02*
X7Y1251D01*
X1172Y1251D02*
X1179Y1251D01*
X0Y1250D02*
X7Y1250D01*
X1172Y1250D02*
X1179Y1250D01*
X0Y1249D02*
X7Y1249D01*
X1172Y1249D02*
X1179Y1249D01*
X0Y1248D02*
X7Y1248D01*
X1172Y1248D02*
X1179Y1248D01*
X0Y1247D02*
X7Y1247D01*
X900Y1247D02*
X924Y1247D01*
X972Y1247D02*
X1008Y1247D01*
X1044Y1247D02*
X1045Y1247D01*
X1084Y1247D02*
X1084Y1247D01*
X1172Y1247D02*
X1179Y1247D01*
X0Y1246D02*
X7Y1246D01*
X897Y1246D02*
X924Y1246D01*
X970Y1246D02*
X1011Y1246D01*
X1042Y1246D02*
X1047Y1246D01*
X1082Y1246D02*
X1087Y1246D01*
X1172Y1246D02*
X1179Y1246D01*
X0Y1245D02*
X7Y1245D01*
X897Y1245D02*
X924Y1245D01*
X969Y1245D02*
X1012Y1245D01*
X1041Y1245D02*
X1048Y1245D01*
X1081Y1245D02*
X1088Y1245D01*
X1172Y1245D02*
X1179Y1245D01*
X0Y1244D02*
X7Y1244D01*
X896Y1244D02*
X924Y1244D01*
X968Y1244D02*
X1014Y1244D01*
X1040Y1244D02*
X1049Y1244D01*
X1080Y1244D02*
X1088Y1244D01*
X1172Y1244D02*
X1179Y1244D01*
X0Y1243D02*
X7Y1243D01*
X896Y1243D02*
X924Y1243D01*
X968Y1243D02*
X1014Y1243D01*
X1040Y1243D02*
X1049Y1243D01*
X1080Y1243D02*
X1089Y1243D01*
X1172Y1243D02*
X1179Y1243D01*
X0Y1242D02*
X7Y1242D01*
X896Y1242D02*
X924Y1242D01*
X968Y1242D02*
X1015Y1242D01*
X1040Y1242D02*
X1049Y1242D01*
X1080Y1242D02*
X1089Y1242D01*
X1172Y1242D02*
X1179Y1242D01*
X0Y1241D02*
X7Y1241D01*
X896Y1241D02*
X924Y1241D01*
X968Y1241D02*
X1016Y1241D01*
X1040Y1241D02*
X1049Y1241D01*
X1080Y1241D02*
X1089Y1241D01*
X1172Y1241D02*
X1179Y1241D01*
X0Y1240D02*
X7Y1240D01*
X896Y1240D02*
X924Y1240D01*
X968Y1240D02*
X1016Y1240D01*
X1040Y1240D02*
X1049Y1240D01*
X1080Y1240D02*
X1089Y1240D01*
X1172Y1240D02*
X1179Y1240D01*
X0Y1239D02*
X7Y1239D01*
X897Y1239D02*
X924Y1239D01*
X969Y1239D02*
X1016Y1239D01*
X1040Y1239D02*
X1049Y1239D01*
X1080Y1239D02*
X1089Y1239D01*
X1172Y1239D02*
X1179Y1239D01*
X0Y1238D02*
X7Y1238D01*
X898Y1238D02*
X924Y1238D01*
X970Y1238D02*
X1016Y1238D01*
X1040Y1238D02*
X1049Y1238D01*
X1080Y1238D02*
X1089Y1238D01*
X1172Y1238D02*
X1179Y1238D01*
X0Y1237D02*
X7Y1237D01*
X915Y1237D02*
X924Y1237D01*
X1007Y1237D02*
X1017Y1237D01*
X1040Y1237D02*
X1049Y1237D01*
X1080Y1237D02*
X1089Y1237D01*
X1172Y1237D02*
X1179Y1237D01*
X0Y1236D02*
X7Y1236D01*
X915Y1236D02*
X924Y1236D01*
X1007Y1236D02*
X1017Y1236D01*
X1040Y1236D02*
X1049Y1236D01*
X1080Y1236D02*
X1089Y1236D01*
X1172Y1236D02*
X1179Y1236D01*
X0Y1235D02*
X7Y1235D01*
X915Y1235D02*
X924Y1235D01*
X1007Y1235D02*
X1017Y1235D01*
X1040Y1235D02*
X1049Y1235D01*
X1080Y1235D02*
X1089Y1235D01*
X1172Y1235D02*
X1179Y1235D01*
X0Y1234D02*
X7Y1234D01*
X915Y1234D02*
X924Y1234D01*
X1007Y1234D02*
X1017Y1234D01*
X1040Y1234D02*
X1049Y1234D01*
X1080Y1234D02*
X1089Y1234D01*
X1172Y1234D02*
X1179Y1234D01*
X0Y1233D02*
X7Y1233D01*
X915Y1233D02*
X924Y1233D01*
X1007Y1233D02*
X1017Y1233D01*
X1040Y1233D02*
X1049Y1233D01*
X1080Y1233D02*
X1089Y1233D01*
X1172Y1233D02*
X1179Y1233D01*
X0Y1232D02*
X7Y1232D01*
X915Y1232D02*
X924Y1232D01*
X1007Y1232D02*
X1017Y1232D01*
X1040Y1232D02*
X1049Y1232D01*
X1080Y1232D02*
X1089Y1232D01*
X1172Y1232D02*
X1179Y1232D01*
X0Y1231D02*
X7Y1231D01*
X915Y1231D02*
X924Y1231D01*
X1007Y1231D02*
X1017Y1231D01*
X1040Y1231D02*
X1049Y1231D01*
X1080Y1231D02*
X1089Y1231D01*
X1172Y1231D02*
X1179Y1231D01*
X0Y1230D02*
X7Y1230D01*
X915Y1230D02*
X924Y1230D01*
X1007Y1230D02*
X1017Y1230D01*
X1040Y1230D02*
X1049Y1230D01*
X1080Y1230D02*
X1089Y1230D01*
X1172Y1230D02*
X1179Y1230D01*
X0Y1229D02*
X7Y1229D01*
X915Y1229D02*
X924Y1229D01*
X1007Y1229D02*
X1017Y1229D01*
X1040Y1229D02*
X1049Y1229D01*
X1080Y1229D02*
X1089Y1229D01*
X1172Y1229D02*
X1179Y1229D01*
X0Y1228D02*
X7Y1228D01*
X915Y1228D02*
X924Y1228D01*
X1007Y1228D02*
X1017Y1228D01*
X1040Y1228D02*
X1049Y1228D01*
X1080Y1228D02*
X1089Y1228D01*
X1172Y1228D02*
X1179Y1228D01*
X0Y1227D02*
X7Y1227D01*
X915Y1227D02*
X924Y1227D01*
X1007Y1227D02*
X1017Y1227D01*
X1040Y1227D02*
X1049Y1227D01*
X1080Y1227D02*
X1089Y1227D01*
X1172Y1227D02*
X1179Y1227D01*
X0Y1226D02*
X7Y1226D01*
X915Y1226D02*
X924Y1226D01*
X1007Y1226D02*
X1017Y1226D01*
X1040Y1226D02*
X1049Y1226D01*
X1080Y1226D02*
X1089Y1226D01*
X1172Y1226D02*
X1179Y1226D01*
X0Y1225D02*
X7Y1225D01*
X915Y1225D02*
X924Y1225D01*
X1007Y1225D02*
X1017Y1225D01*
X1040Y1225D02*
X1050Y1225D01*
X1079Y1225D02*
X1089Y1225D01*
X1172Y1225D02*
X1179Y1225D01*
X0Y1224D02*
X7Y1224D01*
X915Y1224D02*
X924Y1224D01*
X1007Y1224D02*
X1017Y1224D01*
X1040Y1224D02*
X1050Y1224D01*
X1079Y1224D02*
X1089Y1224D01*
X1172Y1224D02*
X1179Y1224D01*
X0Y1223D02*
X7Y1223D01*
X915Y1223D02*
X924Y1223D01*
X1007Y1223D02*
X1017Y1223D01*
X1040Y1223D02*
X1050Y1223D01*
X1079Y1223D02*
X1088Y1223D01*
X1172Y1223D02*
X1179Y1223D01*
X0Y1222D02*
X7Y1222D01*
X915Y1222D02*
X924Y1222D01*
X1007Y1222D02*
X1017Y1222D01*
X1041Y1222D02*
X1051Y1222D01*
X1078Y1222D02*
X1088Y1222D01*
X1172Y1222D02*
X1179Y1222D01*
X0Y1221D02*
X7Y1221D01*
X915Y1221D02*
X924Y1221D01*
X1007Y1221D02*
X1017Y1221D01*
X1041Y1221D02*
X1051Y1221D01*
X1078Y1221D02*
X1088Y1221D01*
X1172Y1221D02*
X1179Y1221D01*
X0Y1220D02*
X7Y1220D01*
X915Y1220D02*
X924Y1220D01*
X1007Y1220D02*
X1017Y1220D01*
X1042Y1220D02*
X1051Y1220D01*
X1077Y1220D02*
X1087Y1220D01*
X1172Y1220D02*
X1179Y1220D01*
X0Y1219D02*
X7Y1219D01*
X915Y1219D02*
X924Y1219D01*
X1007Y1219D02*
X1017Y1219D01*
X1042Y1219D02*
X1052Y1219D01*
X1077Y1219D02*
X1087Y1219D01*
X1172Y1219D02*
X1179Y1219D01*
X0Y1218D02*
X7Y1218D01*
X915Y1218D02*
X924Y1218D01*
X1007Y1218D02*
X1017Y1218D01*
X1042Y1218D02*
X1052Y1218D01*
X1077Y1218D02*
X1086Y1218D01*
X1172Y1218D02*
X1179Y1218D01*
X0Y1217D02*
X7Y1217D01*
X915Y1217D02*
X924Y1217D01*
X1007Y1217D02*
X1017Y1217D01*
X1043Y1217D02*
X1053Y1217D01*
X1076Y1217D02*
X1086Y1217D01*
X1172Y1217D02*
X1179Y1217D01*
X0Y1216D02*
X7Y1216D01*
X915Y1216D02*
X924Y1216D01*
X1007Y1216D02*
X1017Y1216D01*
X1043Y1216D02*
X1053Y1216D01*
X1076Y1216D02*
X1086Y1216D01*
X1172Y1216D02*
X1179Y1216D01*
X0Y1215D02*
X7Y1215D01*
X915Y1215D02*
X924Y1215D01*
X1007Y1215D02*
X1017Y1215D01*
X1044Y1215D02*
X1053Y1215D01*
X1075Y1215D02*
X1085Y1215D01*
X1172Y1215D02*
X1179Y1215D01*
X0Y1214D02*
X7Y1214D01*
X915Y1214D02*
X924Y1214D01*
X1007Y1214D02*
X1017Y1214D01*
X1044Y1214D02*
X1054Y1214D01*
X1075Y1214D02*
X1085Y1214D01*
X1172Y1214D02*
X1179Y1214D01*
X0Y1213D02*
X7Y1213D01*
X915Y1213D02*
X924Y1213D01*
X977Y1213D02*
X1017Y1213D01*
X1044Y1213D02*
X1054Y1213D01*
X1075Y1213D02*
X1084Y1213D01*
X1172Y1213D02*
X1179Y1213D01*
X0Y1212D02*
X7Y1212D01*
X915Y1212D02*
X924Y1212D01*
X973Y1212D02*
X1016Y1212D01*
X1045Y1212D02*
X1055Y1212D01*
X1074Y1212D02*
X1084Y1212D01*
X1172Y1212D02*
X1179Y1212D01*
X0Y1211D02*
X7Y1211D01*
X915Y1211D02*
X924Y1211D01*
X972Y1211D02*
X1016Y1211D01*
X1045Y1211D02*
X1055Y1211D01*
X1074Y1211D02*
X1084Y1211D01*
X1172Y1211D02*
X1179Y1211D01*
X0Y1210D02*
X7Y1210D01*
X915Y1210D02*
X924Y1210D01*
X971Y1210D02*
X1016Y1210D01*
X1045Y1210D02*
X1055Y1210D01*
X1073Y1210D02*
X1083Y1210D01*
X1172Y1210D02*
X1179Y1210D01*
X0Y1209D02*
X7Y1209D01*
X915Y1209D02*
X924Y1209D01*
X970Y1209D02*
X1016Y1209D01*
X1046Y1209D02*
X1056Y1209D01*
X1073Y1209D02*
X1083Y1209D01*
X1172Y1209D02*
X1179Y1209D01*
X0Y1208D02*
X7Y1208D01*
X915Y1208D02*
X924Y1208D01*
X969Y1208D02*
X1015Y1208D01*
X1046Y1208D02*
X1056Y1208D01*
X1073Y1208D02*
X1083Y1208D01*
X1172Y1208D02*
X1179Y1208D01*
X0Y1207D02*
X7Y1207D01*
X915Y1207D02*
X924Y1207D01*
X969Y1207D02*
X1014Y1207D01*
X1047Y1207D02*
X1057Y1207D01*
X1072Y1207D02*
X1082Y1207D01*
X1172Y1207D02*
X1179Y1207D01*
X0Y1206D02*
X7Y1206D01*
X915Y1206D02*
X924Y1206D01*
X968Y1206D02*
X1013Y1206D01*
X1047Y1206D02*
X1057Y1206D01*
X1072Y1206D02*
X1082Y1206D01*
X1172Y1206D02*
X1179Y1206D01*
X0Y1205D02*
X7Y1205D01*
X915Y1205D02*
X924Y1205D01*
X968Y1205D02*
X1012Y1205D01*
X1047Y1205D02*
X1057Y1205D01*
X1071Y1205D02*
X1081Y1205D01*
X1172Y1205D02*
X1179Y1205D01*
X0Y1204D02*
X7Y1204D01*
X915Y1204D02*
X924Y1204D01*
X938Y1204D02*
X942Y1204D01*
X968Y1204D02*
X1011Y1204D01*
X1048Y1204D02*
X1058Y1204D01*
X1071Y1204D02*
X1081Y1204D01*
X1172Y1204D02*
X1179Y1204D01*
X0Y1203D02*
X7Y1203D01*
X915Y1203D02*
X924Y1203D01*
X936Y1203D02*
X943Y1203D01*
X968Y1203D02*
X977Y1203D01*
X1048Y1203D02*
X1058Y1203D01*
X1071Y1203D02*
X1081Y1203D01*
X1172Y1203D02*
X1179Y1203D01*
X0Y1202D02*
X7Y1202D01*
X915Y1202D02*
X924Y1202D01*
X936Y1202D02*
X944Y1202D01*
X968Y1202D02*
X977Y1202D01*
X1049Y1202D02*
X1059Y1202D01*
X1070Y1202D02*
X1080Y1202D01*
X1172Y1202D02*
X1179Y1202D01*
X0Y1201D02*
X7Y1201D01*
X915Y1201D02*
X924Y1201D01*
X935Y1201D02*
X944Y1201D01*
X968Y1201D02*
X977Y1201D01*
X1049Y1201D02*
X1059Y1201D01*
X1070Y1201D02*
X1080Y1201D01*
X1172Y1201D02*
X1179Y1201D01*
X0Y1200D02*
X7Y1200D01*
X915Y1200D02*
X924Y1200D01*
X935Y1200D02*
X944Y1200D01*
X968Y1200D02*
X977Y1200D01*
X1049Y1200D02*
X1059Y1200D01*
X1070Y1200D02*
X1079Y1200D01*
X1172Y1200D02*
X1179Y1200D01*
X0Y1199D02*
X7Y1199D01*
X915Y1199D02*
X924Y1199D01*
X935Y1199D02*
X944Y1199D01*
X968Y1199D02*
X977Y1199D01*
X1050Y1199D02*
X1060Y1199D01*
X1069Y1199D02*
X1079Y1199D01*
X1172Y1199D02*
X1179Y1199D01*
X0Y1198D02*
X7Y1198D01*
X915Y1198D02*
X924Y1198D01*
X935Y1198D02*
X944Y1198D01*
X968Y1198D02*
X977Y1198D01*
X1050Y1198D02*
X1060Y1198D01*
X1069Y1198D02*
X1079Y1198D01*
X1172Y1198D02*
X1179Y1198D01*
X0Y1197D02*
X7Y1197D01*
X915Y1197D02*
X924Y1197D01*
X935Y1197D02*
X944Y1197D01*
X968Y1197D02*
X977Y1197D01*
X1051Y1197D02*
X1060Y1197D01*
X1068Y1197D02*
X1078Y1197D01*
X1172Y1197D02*
X1179Y1197D01*
X0Y1196D02*
X7Y1196D01*
X915Y1196D02*
X924Y1196D01*
X935Y1196D02*
X944Y1196D01*
X968Y1196D02*
X977Y1196D01*
X1051Y1196D02*
X1061Y1196D01*
X1068Y1196D02*
X1078Y1196D01*
X1172Y1196D02*
X1179Y1196D01*
X0Y1195D02*
X7Y1195D01*
X915Y1195D02*
X924Y1195D01*
X935Y1195D02*
X944Y1195D01*
X968Y1195D02*
X977Y1195D01*
X1051Y1195D02*
X1061Y1195D01*
X1068Y1195D02*
X1077Y1195D01*
X1172Y1195D02*
X1179Y1195D01*
X0Y1194D02*
X7Y1194D01*
X915Y1194D02*
X924Y1194D01*
X935Y1194D02*
X944Y1194D01*
X968Y1194D02*
X977Y1194D01*
X1052Y1194D02*
X1062Y1194D01*
X1067Y1194D02*
X1077Y1194D01*
X1172Y1194D02*
X1179Y1194D01*
X0Y1193D02*
X7Y1193D01*
X915Y1193D02*
X924Y1193D01*
X935Y1193D02*
X944Y1193D01*
X968Y1193D02*
X977Y1193D01*
X1052Y1193D02*
X1062Y1193D01*
X1067Y1193D02*
X1077Y1193D01*
X1172Y1193D02*
X1179Y1193D01*
X0Y1192D02*
X7Y1192D01*
X915Y1192D02*
X924Y1192D01*
X935Y1192D02*
X944Y1192D01*
X968Y1192D02*
X977Y1192D01*
X1052Y1192D02*
X1062Y1192D01*
X1066Y1192D02*
X1076Y1192D01*
X1172Y1192D02*
X1179Y1192D01*
X0Y1191D02*
X7Y1191D01*
X915Y1191D02*
X924Y1191D01*
X935Y1191D02*
X944Y1191D01*
X968Y1191D02*
X977Y1191D01*
X1053Y1191D02*
X1063Y1191D01*
X1066Y1191D02*
X1076Y1191D01*
X1172Y1191D02*
X1179Y1191D01*
X0Y1190D02*
X7Y1190D01*
X915Y1190D02*
X924Y1190D01*
X935Y1190D02*
X944Y1190D01*
X968Y1190D02*
X977Y1190D01*
X1053Y1190D02*
X1063Y1190D01*
X1066Y1190D02*
X1076Y1190D01*
X1172Y1190D02*
X1179Y1190D01*
X0Y1189D02*
X7Y1189D01*
X915Y1189D02*
X924Y1189D01*
X935Y1189D02*
X944Y1189D01*
X968Y1189D02*
X977Y1189D01*
X1054Y1189D02*
X1075Y1189D01*
X1172Y1189D02*
X1179Y1189D01*
X0Y1188D02*
X7Y1188D01*
X915Y1188D02*
X924Y1188D01*
X935Y1188D02*
X944Y1188D01*
X968Y1188D02*
X977Y1188D01*
X1054Y1188D02*
X1075Y1188D01*
X1172Y1188D02*
X1179Y1188D01*
X0Y1187D02*
X7Y1187D01*
X915Y1187D02*
X924Y1187D01*
X935Y1187D02*
X944Y1187D01*
X968Y1187D02*
X977Y1187D01*
X1054Y1187D02*
X1074Y1187D01*
X1172Y1187D02*
X1179Y1187D01*
X0Y1186D02*
X7Y1186D01*
X915Y1186D02*
X924Y1186D01*
X935Y1186D02*
X944Y1186D01*
X968Y1186D02*
X977Y1186D01*
X1055Y1186D02*
X1074Y1186D01*
X1172Y1186D02*
X1179Y1186D01*
X0Y1185D02*
X7Y1185D01*
X915Y1185D02*
X924Y1185D01*
X935Y1185D02*
X944Y1185D01*
X968Y1185D02*
X977Y1185D01*
X1055Y1185D02*
X1074Y1185D01*
X1172Y1185D02*
X1179Y1185D01*
X0Y1184D02*
X7Y1184D01*
X915Y1184D02*
X924Y1184D01*
X935Y1184D02*
X944Y1184D01*
X968Y1184D02*
X977Y1184D01*
X1056Y1184D02*
X1073Y1184D01*
X1172Y1184D02*
X1179Y1184D01*
X0Y1183D02*
X7Y1183D01*
X915Y1183D02*
X924Y1183D01*
X935Y1183D02*
X944Y1183D01*
X968Y1183D02*
X977Y1183D01*
X1056Y1183D02*
X1073Y1183D01*
X1172Y1183D02*
X1179Y1183D01*
X0Y1182D02*
X7Y1182D01*
X915Y1182D02*
X924Y1182D01*
X935Y1182D02*
X944Y1182D01*
X968Y1182D02*
X977Y1182D01*
X1056Y1182D02*
X1072Y1182D01*
X1172Y1182D02*
X1179Y1182D01*
X0Y1181D02*
X7Y1181D01*
X915Y1181D02*
X924Y1181D01*
X935Y1181D02*
X944Y1181D01*
X968Y1181D02*
X977Y1181D01*
X1057Y1181D02*
X1072Y1181D01*
X1172Y1181D02*
X1179Y1181D01*
X0Y1180D02*
X7Y1180D01*
X915Y1180D02*
X924Y1180D01*
X935Y1180D02*
X944Y1180D01*
X968Y1180D02*
X977Y1180D01*
X1057Y1180D02*
X1072Y1180D01*
X1172Y1180D02*
X1179Y1180D01*
X0Y1179D02*
X7Y1179D01*
X899Y1179D02*
X944Y1179D01*
X968Y1179D02*
X1013Y1179D01*
X1058Y1179D02*
X1071Y1179D01*
X1172Y1179D02*
X1179Y1179D01*
X0Y1178D02*
X7Y1178D01*
X897Y1178D02*
X944Y1178D01*
X968Y1178D02*
X1015Y1178D01*
X1058Y1178D02*
X1071Y1178D01*
X1172Y1178D02*
X1179Y1178D01*
X0Y1177D02*
X7Y1177D01*
X896Y1177D02*
X944Y1177D01*
X968Y1177D02*
X1016Y1177D01*
X1058Y1177D02*
X1070Y1177D01*
X1172Y1177D02*
X1179Y1177D01*
X0Y1176D02*
X7Y1176D01*
X896Y1176D02*
X944Y1176D01*
X968Y1176D02*
X1016Y1176D01*
X1059Y1176D02*
X1070Y1176D01*
X1172Y1176D02*
X1179Y1176D01*
X0Y1175D02*
X7Y1175D01*
X896Y1175D02*
X944Y1175D01*
X968Y1175D02*
X1016Y1175D01*
X1059Y1175D02*
X1070Y1175D01*
X1172Y1175D02*
X1179Y1175D01*
X0Y1174D02*
X7Y1174D01*
X896Y1174D02*
X944Y1174D01*
X968Y1174D02*
X1016Y1174D01*
X1059Y1174D02*
X1069Y1174D01*
X1172Y1174D02*
X1179Y1174D01*
X0Y1173D02*
X7Y1173D01*
X896Y1173D02*
X944Y1173D01*
X968Y1173D02*
X1016Y1173D01*
X1060Y1173D02*
X1069Y1173D01*
X1172Y1173D02*
X1179Y1173D01*
X0Y1172D02*
X7Y1172D01*
X896Y1172D02*
X944Y1172D01*
X968Y1172D02*
X1016Y1172D01*
X1060Y1172D02*
X1068Y1172D01*
X1172Y1172D02*
X1179Y1172D01*
X0Y1171D02*
X7Y1171D01*
X897Y1171D02*
X943Y1171D01*
X968Y1171D02*
X1015Y1171D01*
X1061Y1171D02*
X1068Y1171D01*
X1172Y1171D02*
X1179Y1171D01*
X0Y1170D02*
X7Y1170D01*
X898Y1170D02*
X942Y1170D01*
X968Y1170D02*
X1014Y1170D01*
X1062Y1170D02*
X1067Y1170D01*
X1172Y1170D02*
X1179Y1170D01*
X0Y1169D02*
X7Y1169D01*
X1172Y1169D02*
X1179Y1169D01*
X0Y1168D02*
X7Y1168D01*
X1172Y1168D02*
X1179Y1168D01*
X0Y1167D02*
X7Y1167D01*
X1172Y1167D02*
X1179Y1167D01*
X0Y1166D02*
X7Y1166D01*
X1172Y1166D02*
X1179Y1166D01*
X0Y1165D02*
X7Y1165D01*
X1172Y1165D02*
X1179Y1165D01*
X0Y1164D02*
X7Y1164D01*
X1172Y1164D02*
X1179Y1164D01*
X0Y1163D02*
X7Y1163D01*
X1172Y1163D02*
X1179Y1163D01*
X0Y1162D02*
X7Y1162D01*
X1172Y1162D02*
X1179Y1162D01*
X0Y1161D02*
X7Y1161D01*
X1172Y1161D02*
X1179Y1161D01*
X0Y1160D02*
X7Y1160D01*
X1172Y1160D02*
X1179Y1160D01*
X0Y1159D02*
X7Y1159D01*
X1172Y1159D02*
X1179Y1159D01*
X0Y1158D02*
X7Y1158D01*
X1172Y1158D02*
X1179Y1158D01*
X0Y1157D02*
X7Y1157D01*
X1172Y1157D02*
X1179Y1157D01*
X0Y1156D02*
X7Y1156D01*
X1172Y1156D02*
X1179Y1156D01*
X0Y1155D02*
X7Y1155D01*
X1172Y1155D02*
X1179Y1155D01*
X0Y1154D02*
X7Y1154D01*
X1172Y1154D02*
X1179Y1154D01*
X0Y1153D02*
X7Y1153D01*
X1172Y1153D02*
X1179Y1153D01*
X0Y1152D02*
X7Y1152D01*
X1172Y1152D02*
X1179Y1152D01*
X0Y1151D02*
X7Y1151D01*
X1172Y1151D02*
X1179Y1151D01*
X0Y1150D02*
X7Y1150D01*
X1172Y1150D02*
X1179Y1150D01*
X0Y1149D02*
X7Y1149D01*
X1172Y1149D02*
X1179Y1149D01*
X0Y1148D02*
X7Y1148D01*
X1172Y1148D02*
X1179Y1148D01*
X0Y1147D02*
X7Y1147D01*
X1172Y1147D02*
X1179Y1147D01*
X0Y1146D02*
X7Y1146D01*
X1172Y1146D02*
X1179Y1146D01*
X0Y1145D02*
X7Y1145D01*
X1172Y1145D02*
X1179Y1145D01*
X0Y1144D02*
X7Y1144D01*
X1172Y1144D02*
X1179Y1144D01*
X0Y1143D02*
X7Y1143D01*
X1172Y1143D02*
X1179Y1143D01*
X0Y1142D02*
X7Y1142D01*
X1172Y1142D02*
X1179Y1142D01*
X0Y1141D02*
X7Y1141D01*
X1172Y1141D02*
X1179Y1141D01*
X0Y1140D02*
X7Y1140D01*
X1172Y1140D02*
X1179Y1140D01*
X0Y1139D02*
X7Y1139D01*
X1172Y1139D02*
X1179Y1139D01*
X0Y1138D02*
X7Y1138D01*
X1172Y1138D02*
X1179Y1138D01*
X0Y1137D02*
X7Y1137D01*
X1172Y1137D02*
X1179Y1137D01*
X0Y1136D02*
X7Y1136D01*
X1172Y1136D02*
X1179Y1136D01*
X0Y1135D02*
X7Y1135D01*
X1172Y1135D02*
X1179Y1135D01*
X0Y1134D02*
X7Y1134D01*
X1172Y1134D02*
X1179Y1134D01*
X0Y1133D02*
X7Y1133D01*
X1172Y1133D02*
X1179Y1133D01*
X0Y1132D02*
X7Y1132D01*
X1172Y1132D02*
X1179Y1132D01*
X0Y1131D02*
X7Y1131D01*
X1172Y1131D02*
X1179Y1131D01*
X0Y1130D02*
X7Y1130D01*
X1172Y1130D02*
X1179Y1130D01*
X0Y1129D02*
X7Y1129D01*
X1172Y1129D02*
X1179Y1129D01*
X0Y1128D02*
X7Y1128D01*
X1172Y1128D02*
X1179Y1128D01*
X0Y1127D02*
X7Y1127D01*
X1172Y1127D02*
X1179Y1127D01*
X0Y1126D02*
X7Y1126D01*
X1172Y1126D02*
X1179Y1126D01*
X0Y1125D02*
X7Y1125D01*
X1172Y1125D02*
X1179Y1125D01*
X0Y1124D02*
X7Y1124D01*
X1172Y1124D02*
X1179Y1124D01*
X0Y1123D02*
X7Y1123D01*
X1172Y1123D02*
X1179Y1123D01*
X0Y1122D02*
X7Y1122D01*
X1172Y1122D02*
X1179Y1122D01*
X0Y1121D02*
X7Y1121D01*
X1172Y1121D02*
X1179Y1121D01*
X0Y1120D02*
X7Y1120D01*
X1172Y1120D02*
X1179Y1120D01*
X0Y1119D02*
X7Y1119D01*
X1172Y1119D02*
X1179Y1119D01*
X0Y1118D02*
X7Y1118D01*
X1172Y1118D02*
X1179Y1118D01*
X0Y1117D02*
X7Y1117D01*
X1172Y1117D02*
X1179Y1117D01*
X0Y1116D02*
X7Y1116D01*
X1172Y1116D02*
X1179Y1116D01*
X0Y1115D02*
X7Y1115D01*
X1172Y1115D02*
X1179Y1115D01*
X0Y1114D02*
X7Y1114D01*
X1172Y1114D02*
X1179Y1114D01*
X0Y1113D02*
X7Y1113D01*
X1172Y1113D02*
X1179Y1113D01*
X0Y1112D02*
X7Y1112D01*
X1172Y1112D02*
X1179Y1112D01*
X0Y1111D02*
X7Y1111D01*
X1172Y1111D02*
X1179Y1111D01*
X0Y1110D02*
X7Y1110D01*
X1172Y1110D02*
X1179Y1110D01*
X0Y1109D02*
X7Y1109D01*
X1172Y1109D02*
X1179Y1109D01*
X0Y1108D02*
X7Y1108D01*
X1172Y1108D02*
X1179Y1108D01*
X0Y1107D02*
X7Y1107D01*
X1172Y1107D02*
X1179Y1107D01*
X0Y1106D02*
X7Y1106D01*
X1172Y1106D02*
X1179Y1106D01*
X0Y1105D02*
X7Y1105D01*
X1172Y1105D02*
X1179Y1105D01*
X0Y1104D02*
X7Y1104D01*
X1172Y1104D02*
X1179Y1104D01*
X0Y1103D02*
X7Y1103D01*
X1172Y1103D02*
X1179Y1103D01*
X0Y1102D02*
X7Y1102D01*
X1172Y1102D02*
X1179Y1102D01*
X0Y1101D02*
X7Y1101D01*
X1172Y1101D02*
X1179Y1101D01*
X0Y1100D02*
X7Y1100D01*
X1172Y1100D02*
X1179Y1100D01*
X0Y1099D02*
X7Y1099D01*
X1172Y1099D02*
X1179Y1099D01*
X0Y1098D02*
X7Y1098D01*
X1172Y1098D02*
X1179Y1098D01*
X0Y1097D02*
X7Y1097D01*
X1172Y1097D02*
X1179Y1097D01*
X0Y1096D02*
X7Y1096D01*
X1172Y1096D02*
X1179Y1096D01*
X0Y1095D02*
X7Y1095D01*
X1172Y1095D02*
X1179Y1095D01*
X0Y1094D02*
X7Y1094D01*
X1172Y1094D02*
X1179Y1094D01*
X0Y1093D02*
X7Y1093D01*
X1172Y1093D02*
X1179Y1093D01*
X0Y1092D02*
X7Y1092D01*
X1172Y1092D02*
X1179Y1092D01*
X0Y1091D02*
X7Y1091D01*
X1172Y1091D02*
X1179Y1091D01*
X0Y1090D02*
X7Y1090D01*
X1172Y1090D02*
X1179Y1090D01*
X0Y1089D02*
X7Y1089D01*
X1172Y1089D02*
X1179Y1089D01*
X0Y1088D02*
X7Y1088D01*
X1172Y1088D02*
X1179Y1088D01*
X0Y1087D02*
X7Y1087D01*
X1172Y1087D02*
X1179Y1087D01*
X0Y1086D02*
X7Y1086D01*
X1172Y1086D02*
X1179Y1086D01*
X0Y1085D02*
X7Y1085D01*
X1172Y1085D02*
X1179Y1085D01*
X0Y1084D02*
X7Y1084D01*
X1172Y1084D02*
X1179Y1084D01*
X0Y1083D02*
X7Y1083D01*
X1172Y1083D02*
X1179Y1083D01*
X0Y1082D02*
X7Y1082D01*
X1172Y1082D02*
X1179Y1082D01*
X0Y1081D02*
X7Y1081D01*
X1172Y1081D02*
X1179Y1081D01*
X0Y1080D02*
X7Y1080D01*
X1172Y1080D02*
X1179Y1080D01*
X0Y1079D02*
X7Y1079D01*
X1172Y1079D02*
X1179Y1079D01*
X0Y1078D02*
X7Y1078D01*
X1172Y1078D02*
X1179Y1078D01*
X0Y1077D02*
X7Y1077D01*
X1172Y1077D02*
X1179Y1077D01*
X0Y1076D02*
X7Y1076D01*
X1172Y1076D02*
X1179Y1076D01*
X0Y1075D02*
X7Y1075D01*
X1172Y1075D02*
X1179Y1075D01*
X0Y1074D02*
X7Y1074D01*
X1172Y1074D02*
X1179Y1074D01*
X0Y1073D02*
X7Y1073D01*
X1172Y1073D02*
X1179Y1073D01*
X0Y1072D02*
X7Y1072D01*
X1172Y1072D02*
X1179Y1072D01*
X0Y1071D02*
X7Y1071D01*
X1172Y1071D02*
X1179Y1071D01*
X0Y1070D02*
X7Y1070D01*
X1172Y1070D02*
X1179Y1070D01*
X0Y1069D02*
X7Y1069D01*
X1172Y1069D02*
X1179Y1069D01*
X0Y1068D02*
X7Y1068D01*
X1172Y1068D02*
X1179Y1068D01*
X0Y1067D02*
X7Y1067D01*
X1172Y1067D02*
X1179Y1067D01*
X0Y1066D02*
X7Y1066D01*
X1172Y1066D02*
X1179Y1066D01*
X0Y1065D02*
X7Y1065D01*
X1172Y1065D02*
X1179Y1065D01*
X0Y1064D02*
X7Y1064D01*
X1172Y1064D02*
X1179Y1064D01*
X0Y1063D02*
X7Y1063D01*
X1172Y1063D02*
X1179Y1063D01*
X0Y1062D02*
X7Y1062D01*
X1172Y1062D02*
X1179Y1062D01*
X0Y1061D02*
X7Y1061D01*
X1172Y1061D02*
X1179Y1061D01*
X0Y1060D02*
X7Y1060D01*
X1172Y1060D02*
X1179Y1060D01*
X0Y1059D02*
X7Y1059D01*
X1172Y1059D02*
X1179Y1059D01*
X0Y1058D02*
X7Y1058D01*
X1172Y1058D02*
X1179Y1058D01*
X0Y1057D02*
X7Y1057D01*
X1172Y1057D02*
X1179Y1057D01*
X0Y1056D02*
X7Y1056D01*
X1172Y1056D02*
X1179Y1056D01*
X0Y1055D02*
X7Y1055D01*
X1172Y1055D02*
X1179Y1055D01*
X0Y1054D02*
X7Y1054D01*
X1172Y1054D02*
X1179Y1054D01*
X0Y1053D02*
X7Y1053D01*
X1172Y1053D02*
X1179Y1053D01*
X0Y1052D02*
X7Y1052D01*
X1172Y1052D02*
X1179Y1052D01*
X0Y1051D02*
X7Y1051D01*
X1172Y1051D02*
X1179Y1051D01*
X0Y1050D02*
X7Y1050D01*
X1172Y1050D02*
X1179Y1050D01*
X0Y1049D02*
X7Y1049D01*
X1172Y1049D02*
X1179Y1049D01*
X0Y1048D02*
X7Y1048D01*
X1172Y1048D02*
X1179Y1048D01*
X0Y1047D02*
X7Y1047D01*
X1172Y1047D02*
X1179Y1047D01*
X0Y1046D02*
X7Y1046D01*
X1172Y1046D02*
X1179Y1046D01*
X0Y1045D02*
X7Y1045D01*
X1172Y1045D02*
X1179Y1045D01*
X0Y1044D02*
X7Y1044D01*
X1172Y1044D02*
X1179Y1044D01*
X0Y1043D02*
X7Y1043D01*
X1172Y1043D02*
X1179Y1043D01*
X0Y1042D02*
X7Y1042D01*
X1172Y1042D02*
X1179Y1042D01*
X0Y1041D02*
X7Y1041D01*
X1172Y1041D02*
X1179Y1041D01*
X0Y1040D02*
X7Y1040D01*
X1172Y1040D02*
X1179Y1040D01*
X0Y1039D02*
X7Y1039D01*
X1172Y1039D02*
X1179Y1039D01*
X0Y1038D02*
X7Y1038D01*
X1172Y1038D02*
X1179Y1038D01*
X0Y1037D02*
X7Y1037D01*
X1172Y1037D02*
X1179Y1037D01*
X0Y1036D02*
X7Y1036D01*
X1172Y1036D02*
X1179Y1036D01*
X0Y1035D02*
X7Y1035D01*
X1172Y1035D02*
X1179Y1035D01*
X0Y1034D02*
X7Y1034D01*
X1172Y1034D02*
X1179Y1034D01*
X0Y1033D02*
X7Y1033D01*
X1172Y1033D02*
X1179Y1033D01*
X0Y1032D02*
X7Y1032D01*
X1172Y1032D02*
X1179Y1032D01*
X0Y1031D02*
X7Y1031D01*
X1172Y1031D02*
X1179Y1031D01*
X0Y1030D02*
X7Y1030D01*
X1172Y1030D02*
X1179Y1030D01*
X0Y1029D02*
X7Y1029D01*
X1172Y1029D02*
X1179Y1029D01*
X0Y1028D02*
X7Y1028D01*
X1172Y1028D02*
X1179Y1028D01*
X0Y1027D02*
X7Y1027D01*
X1172Y1027D02*
X1179Y1027D01*
X0Y1026D02*
X7Y1026D01*
X1172Y1026D02*
X1179Y1026D01*
X0Y1025D02*
X7Y1025D01*
X1172Y1025D02*
X1179Y1025D01*
X0Y1024D02*
X7Y1024D01*
X1172Y1024D02*
X1179Y1024D01*
X0Y1023D02*
X7Y1023D01*
X1172Y1023D02*
X1179Y1023D01*
X0Y1022D02*
X7Y1022D01*
X1172Y1022D02*
X1179Y1022D01*
X0Y1021D02*
X7Y1021D01*
X1172Y1021D02*
X1179Y1021D01*
X0Y1020D02*
X7Y1020D01*
X1172Y1020D02*
X1179Y1020D01*
X0Y1019D02*
X7Y1019D01*
X1172Y1019D02*
X1179Y1019D01*
X0Y1018D02*
X7Y1018D01*
X1172Y1018D02*
X1179Y1018D01*
X0Y1017D02*
X7Y1017D01*
X1172Y1017D02*
X1179Y1017D01*
X0Y1016D02*
X7Y1016D01*
X1172Y1016D02*
X1179Y1016D01*
X0Y1015D02*
X7Y1015D01*
X1172Y1015D02*
X1179Y1015D01*
X0Y1014D02*
X7Y1014D01*
X1172Y1014D02*
X1179Y1014D01*
X0Y1013D02*
X7Y1013D01*
X1172Y1013D02*
X1179Y1013D01*
X0Y1012D02*
X7Y1012D01*
X1172Y1012D02*
X1179Y1012D01*
X0Y1011D02*
X7Y1011D01*
X1172Y1011D02*
X1179Y1011D01*
X0Y1010D02*
X7Y1010D01*
X1172Y1010D02*
X1179Y1010D01*
X0Y1009D02*
X7Y1009D01*
X1172Y1009D02*
X1179Y1009D01*
X0Y1008D02*
X7Y1008D01*
X1172Y1008D02*
X1179Y1008D01*
X0Y1007D02*
X7Y1007D01*
X1172Y1007D02*
X1179Y1007D01*
X0Y1006D02*
X7Y1006D01*
X1172Y1006D02*
X1179Y1006D01*
X0Y1005D02*
X7Y1005D01*
X1172Y1005D02*
X1179Y1005D01*
X0Y1004D02*
X7Y1004D01*
X1172Y1004D02*
X1179Y1004D01*
X0Y1003D02*
X7Y1003D01*
X1172Y1003D02*
X1179Y1003D01*
X0Y1002D02*
X7Y1002D01*
X1172Y1002D02*
X1179Y1002D01*
X0Y1001D02*
X7Y1001D01*
X1172Y1001D02*
X1179Y1001D01*
X0Y1000D02*
X7Y1000D01*
X1172Y1000D02*
X1179Y1000D01*
X0Y999D02*
X7Y999D01*
X1172Y999D02*
X1179Y999D01*
X0Y998D02*
X7Y998D01*
X1172Y998D02*
X1179Y998D01*
X0Y997D02*
X7Y997D01*
X1172Y997D02*
X1179Y997D01*
X0Y996D02*
X7Y996D01*
X1172Y996D02*
X1179Y996D01*
X0Y995D02*
X7Y995D01*
X1172Y995D02*
X1179Y995D01*
X0Y994D02*
X7Y994D01*
X1172Y994D02*
X1179Y994D01*
X0Y993D02*
X7Y993D01*
X1172Y993D02*
X1179Y993D01*
X0Y992D02*
X7Y992D01*
X1172Y992D02*
X1179Y992D01*
X0Y991D02*
X7Y991D01*
X1172Y991D02*
X1179Y991D01*
X0Y990D02*
X7Y990D01*
X1172Y990D02*
X1179Y990D01*
X0Y989D02*
X7Y989D01*
X1172Y989D02*
X1179Y989D01*
X0Y988D02*
X7Y988D01*
X1172Y988D02*
X1179Y988D01*
X0Y987D02*
X7Y987D01*
X1172Y987D02*
X1179Y987D01*
X0Y986D02*
X7Y986D01*
X1172Y986D02*
X1179Y986D01*
X0Y985D02*
X7Y985D01*
X1172Y985D02*
X1179Y985D01*
X0Y984D02*
X7Y984D01*
X1172Y984D02*
X1179Y984D01*
X0Y983D02*
X7Y983D01*
X1172Y983D02*
X1179Y983D01*
X0Y982D02*
X7Y982D01*
X1172Y982D02*
X1179Y982D01*
X0Y981D02*
X7Y981D01*
X1172Y981D02*
X1179Y981D01*
X0Y980D02*
X7Y980D01*
X1172Y980D02*
X1179Y980D01*
X0Y979D02*
X7Y979D01*
X1172Y979D02*
X1179Y979D01*
X0Y978D02*
X7Y978D01*
X1172Y978D02*
X1179Y978D01*
X0Y977D02*
X7Y977D01*
X1172Y977D02*
X1179Y977D01*
X0Y976D02*
X7Y976D01*
X1172Y976D02*
X1179Y976D01*
X0Y975D02*
X7Y975D01*
X1172Y975D02*
X1179Y975D01*
X0Y974D02*
X7Y974D01*
X1172Y974D02*
X1179Y974D01*
X0Y973D02*
X7Y973D01*
X1172Y973D02*
X1179Y973D01*
X0Y972D02*
X7Y972D01*
X1172Y972D02*
X1179Y972D01*
X0Y971D02*
X7Y971D01*
X1172Y971D02*
X1179Y971D01*
X0Y970D02*
X7Y970D01*
X1172Y970D02*
X1179Y970D01*
X0Y969D02*
X7Y969D01*
X1172Y969D02*
X1179Y969D01*
X0Y968D02*
X7Y968D01*
X1172Y968D02*
X1179Y968D01*
X0Y967D02*
X7Y967D01*
X1172Y967D02*
X1179Y967D01*
X0Y966D02*
X7Y966D01*
X1172Y966D02*
X1179Y966D01*
X0Y965D02*
X7Y965D01*
X1172Y965D02*
X1179Y965D01*
X0Y964D02*
X7Y964D01*
X1172Y964D02*
X1179Y964D01*
X0Y963D02*
X7Y963D01*
X1172Y963D02*
X1179Y963D01*
X0Y962D02*
X7Y962D01*
X1172Y962D02*
X1179Y962D01*
X0Y961D02*
X7Y961D01*
X1172Y961D02*
X1179Y961D01*
X0Y960D02*
X7Y960D01*
X1172Y960D02*
X1179Y960D01*
X0Y959D02*
X7Y959D01*
X1172Y959D02*
X1179Y959D01*
X0Y958D02*
X7Y958D01*
X1172Y958D02*
X1179Y958D01*
X0Y957D02*
X7Y957D01*
X1172Y957D02*
X1179Y957D01*
X0Y956D02*
X7Y956D01*
X1172Y956D02*
X1179Y956D01*
X0Y955D02*
X7Y955D01*
X1172Y955D02*
X1179Y955D01*
X0Y954D02*
X7Y954D01*
X1172Y954D02*
X1179Y954D01*
X0Y953D02*
X7Y953D01*
X1172Y953D02*
X1179Y953D01*
X0Y952D02*
X7Y952D01*
X1172Y952D02*
X1179Y952D01*
X0Y951D02*
X7Y951D01*
X1172Y951D02*
X1179Y951D01*
X0Y950D02*
X7Y950D01*
X1172Y950D02*
X1179Y950D01*
X0Y949D02*
X7Y949D01*
X1172Y949D02*
X1179Y949D01*
X0Y948D02*
X7Y948D01*
X1172Y948D02*
X1179Y948D01*
X0Y947D02*
X7Y947D01*
X1172Y947D02*
X1179Y947D01*
X0Y946D02*
X7Y946D01*
X1172Y946D02*
X1179Y946D01*
X0Y945D02*
X7Y945D01*
X1172Y945D02*
X1179Y945D01*
X0Y944D02*
X7Y944D01*
X1172Y944D02*
X1179Y944D01*
X0Y943D02*
X7Y943D01*
X1172Y943D02*
X1179Y943D01*
X0Y942D02*
X7Y942D01*
X1172Y942D02*
X1179Y942D01*
X0Y941D02*
X7Y941D01*
X1172Y941D02*
X1179Y941D01*
X0Y940D02*
X7Y940D01*
X1172Y940D02*
X1179Y940D01*
X0Y939D02*
X7Y939D01*
X1172Y939D02*
X1179Y939D01*
X0Y938D02*
X7Y938D01*
X1172Y938D02*
X1179Y938D01*
X0Y937D02*
X7Y937D01*
X1172Y937D02*
X1179Y937D01*
X0Y936D02*
X7Y936D01*
X1172Y936D02*
X1179Y936D01*
X0Y935D02*
X7Y935D01*
X1172Y935D02*
X1179Y935D01*
X0Y934D02*
X7Y934D01*
X1172Y934D02*
X1179Y934D01*
X0Y933D02*
X7Y933D01*
X1172Y933D02*
X1179Y933D01*
X0Y932D02*
X7Y932D01*
X1172Y932D02*
X1179Y932D01*
X0Y931D02*
X7Y931D01*
X1172Y931D02*
X1179Y931D01*
X0Y930D02*
X7Y930D01*
X1172Y930D02*
X1179Y930D01*
X0Y929D02*
X7Y929D01*
X1172Y929D02*
X1179Y929D01*
X0Y928D02*
X7Y928D01*
X1172Y928D02*
X1179Y928D01*
X0Y927D02*
X7Y927D01*
X1172Y927D02*
X1179Y927D01*
X0Y926D02*
X7Y926D01*
X1172Y926D02*
X1179Y926D01*
X0Y925D02*
X7Y925D01*
X1172Y925D02*
X1179Y925D01*
X0Y924D02*
X7Y924D01*
X1172Y924D02*
X1179Y924D01*
X0Y923D02*
X7Y923D01*
X1172Y923D02*
X1179Y923D01*
X0Y922D02*
X7Y922D01*
X1172Y922D02*
X1179Y922D01*
X0Y921D02*
X7Y921D01*
X1172Y921D02*
X1179Y921D01*
X0Y920D02*
X7Y920D01*
X1172Y920D02*
X1179Y920D01*
X0Y919D02*
X7Y919D01*
X1172Y919D02*
X1179Y919D01*
X0Y918D02*
X7Y918D01*
X1172Y918D02*
X1179Y918D01*
X0Y917D02*
X7Y917D01*
X1172Y917D02*
X1179Y917D01*
X0Y916D02*
X7Y916D01*
X1172Y916D02*
X1179Y916D01*
X0Y915D02*
X7Y915D01*
X1172Y915D02*
X1179Y915D01*
X0Y914D02*
X7Y914D01*
X1172Y914D02*
X1179Y914D01*
X0Y913D02*
X7Y913D01*
X1172Y913D02*
X1179Y913D01*
X0Y912D02*
X7Y912D01*
X1172Y912D02*
X1179Y912D01*
X0Y911D02*
X7Y911D01*
X1172Y911D02*
X1179Y911D01*
X0Y910D02*
X7Y910D01*
X1172Y910D02*
X1179Y910D01*
X0Y909D02*
X7Y909D01*
X1172Y909D02*
X1179Y909D01*
X0Y908D02*
X7Y908D01*
X1172Y908D02*
X1179Y908D01*
X0Y907D02*
X7Y907D01*
X1172Y907D02*
X1179Y907D01*
X0Y906D02*
X7Y906D01*
X1172Y906D02*
X1179Y906D01*
X0Y905D02*
X7Y905D01*
X1172Y905D02*
X1179Y905D01*
X0Y904D02*
X7Y904D01*
X1172Y904D02*
X1179Y904D01*
X0Y903D02*
X7Y903D01*
X1172Y903D02*
X1179Y903D01*
X0Y902D02*
X7Y902D01*
X1172Y902D02*
X1179Y902D01*
X0Y901D02*
X7Y901D01*
X1172Y901D02*
X1179Y901D01*
X0Y900D02*
X7Y900D01*
X1172Y900D02*
X1179Y900D01*
X0Y899D02*
X7Y899D01*
X1172Y899D02*
X1179Y899D01*
X0Y898D02*
X7Y898D01*
X1172Y898D02*
X1179Y898D01*
X0Y897D02*
X7Y897D01*
X1172Y897D02*
X1179Y897D01*
X0Y896D02*
X7Y896D01*
X1172Y896D02*
X1179Y896D01*
X0Y895D02*
X7Y895D01*
X1172Y895D02*
X1179Y895D01*
X0Y894D02*
X7Y894D01*
X1172Y894D02*
X1179Y894D01*
X0Y893D02*
X7Y893D01*
X1172Y893D02*
X1179Y893D01*
X0Y892D02*
X7Y892D01*
X1172Y892D02*
X1179Y892D01*
X0Y891D02*
X7Y891D01*
X1172Y891D02*
X1179Y891D01*
X0Y890D02*
X7Y890D01*
X1172Y890D02*
X1179Y890D01*
X0Y889D02*
X7Y889D01*
X1172Y889D02*
X1179Y889D01*
X0Y888D02*
X7Y888D01*
X1172Y888D02*
X1179Y888D01*
X0Y887D02*
X7Y887D01*
X1172Y887D02*
X1179Y887D01*
X0Y886D02*
X7Y886D01*
X1172Y886D02*
X1179Y886D01*
X0Y885D02*
X7Y885D01*
X1172Y885D02*
X1179Y885D01*
X0Y884D02*
X7Y884D01*
X1172Y884D02*
X1179Y884D01*
X0Y883D02*
X7Y883D01*
X1172Y883D02*
X1179Y883D01*
X0Y882D02*
X7Y882D01*
X1172Y882D02*
X1179Y882D01*
X0Y881D02*
X7Y881D01*
X1172Y881D02*
X1179Y881D01*
X0Y880D02*
X7Y880D01*
X1172Y880D02*
X1179Y880D01*
X0Y879D02*
X7Y879D01*
X1172Y879D02*
X1179Y879D01*
X0Y878D02*
X7Y878D01*
X1172Y878D02*
X1179Y878D01*
X0Y877D02*
X7Y877D01*
X1172Y877D02*
X1179Y877D01*
X0Y876D02*
X7Y876D01*
X1172Y876D02*
X1179Y876D01*
X0Y875D02*
X7Y875D01*
X1172Y875D02*
X1179Y875D01*
X0Y874D02*
X7Y874D01*
X1172Y874D02*
X1179Y874D01*
X0Y873D02*
X7Y873D01*
X1172Y873D02*
X1179Y873D01*
X0Y872D02*
X7Y872D01*
X1172Y872D02*
X1179Y872D01*
X0Y871D02*
X7Y871D01*
X1172Y871D02*
X1179Y871D01*
X0Y870D02*
X7Y870D01*
X1172Y870D02*
X1179Y870D01*
X0Y869D02*
X7Y869D01*
X1172Y869D02*
X1179Y869D01*
X0Y868D02*
X7Y868D01*
X1172Y868D02*
X1179Y868D01*
X0Y867D02*
X7Y867D01*
X1172Y867D02*
X1179Y867D01*
X0Y866D02*
X7Y866D01*
X1172Y866D02*
X1179Y866D01*
X0Y865D02*
X7Y865D01*
X1172Y865D02*
X1179Y865D01*
X0Y864D02*
X7Y864D01*
X1172Y864D02*
X1179Y864D01*
X0Y863D02*
X7Y863D01*
X1172Y863D02*
X1179Y863D01*
X0Y862D02*
X7Y862D01*
X1172Y862D02*
X1179Y862D01*
X0Y861D02*
X7Y861D01*
X1172Y861D02*
X1179Y861D01*
X0Y860D02*
X7Y860D01*
X1172Y860D02*
X1179Y860D01*
X0Y859D02*
X7Y859D01*
X1172Y859D02*
X1179Y859D01*
X0Y858D02*
X7Y858D01*
X1172Y858D02*
X1179Y858D01*
X0Y857D02*
X7Y857D01*
X1172Y857D02*
X1179Y857D01*
X0Y856D02*
X7Y856D01*
X1172Y856D02*
X1179Y856D01*
X0Y855D02*
X7Y855D01*
X1172Y855D02*
X1179Y855D01*
X0Y854D02*
X7Y854D01*
X1172Y854D02*
X1179Y854D01*
X0Y853D02*
X7Y853D01*
X1172Y853D02*
X1179Y853D01*
X0Y852D02*
X7Y852D01*
X1172Y852D02*
X1179Y852D01*
X0Y851D02*
X7Y851D01*
X1172Y851D02*
X1179Y851D01*
X0Y850D02*
X7Y850D01*
X1172Y850D02*
X1179Y850D01*
X0Y849D02*
X7Y849D01*
X1172Y849D02*
X1179Y849D01*
X0Y848D02*
X7Y848D01*
X1172Y848D02*
X1179Y848D01*
X0Y847D02*
X7Y847D01*
X1172Y847D02*
X1179Y847D01*
X0Y846D02*
X7Y846D01*
X1172Y846D02*
X1179Y846D01*
X0Y845D02*
X7Y845D01*
X1172Y845D02*
X1179Y845D01*
X0Y844D02*
X7Y844D01*
X1172Y844D02*
X1179Y844D01*
X0Y843D02*
X7Y843D01*
X1172Y843D02*
X1179Y843D01*
X0Y842D02*
X7Y842D01*
X1172Y842D02*
X1179Y842D01*
X0Y841D02*
X7Y841D01*
X1172Y841D02*
X1179Y841D01*
X0Y840D02*
X7Y840D01*
X1172Y840D02*
X1179Y840D01*
X0Y839D02*
X7Y839D01*
X1172Y839D02*
X1179Y839D01*
X0Y838D02*
X7Y838D01*
X1172Y838D02*
X1179Y838D01*
X0Y837D02*
X7Y837D01*
X1172Y837D02*
X1179Y837D01*
X0Y836D02*
X7Y836D01*
X1172Y836D02*
X1179Y836D01*
X0Y835D02*
X7Y835D01*
X1172Y835D02*
X1179Y835D01*
X0Y834D02*
X7Y834D01*
X1172Y834D02*
X1179Y834D01*
X0Y833D02*
X7Y833D01*
X1172Y833D02*
X1179Y833D01*
X0Y832D02*
X7Y832D01*
X1172Y832D02*
X1179Y832D01*
X0Y831D02*
X7Y831D01*
X1172Y831D02*
X1179Y831D01*
X0Y830D02*
X7Y830D01*
X1172Y830D02*
X1179Y830D01*
X0Y829D02*
X7Y829D01*
X1172Y829D02*
X1179Y829D01*
X0Y828D02*
X7Y828D01*
X1172Y828D02*
X1179Y828D01*
X0Y827D02*
X7Y827D01*
X1172Y827D02*
X1179Y827D01*
X0Y826D02*
X7Y826D01*
X1172Y826D02*
X1179Y826D01*
X0Y825D02*
X7Y825D01*
X1172Y825D02*
X1179Y825D01*
X0Y824D02*
X7Y824D01*
X1172Y824D02*
X1179Y824D01*
X0Y823D02*
X7Y823D01*
X1172Y823D02*
X1179Y823D01*
X0Y822D02*
X7Y822D01*
X1172Y822D02*
X1179Y822D01*
X0Y821D02*
X7Y821D01*
X1172Y821D02*
X1179Y821D01*
X0Y820D02*
X7Y820D01*
X1172Y820D02*
X1179Y820D01*
X0Y819D02*
X7Y819D01*
X1172Y819D02*
X1179Y819D01*
X0Y818D02*
X7Y818D01*
X1172Y818D02*
X1179Y818D01*
X0Y817D02*
X7Y817D01*
X1172Y817D02*
X1179Y817D01*
X0Y816D02*
X7Y816D01*
X1172Y816D02*
X1179Y816D01*
X0Y815D02*
X7Y815D01*
X1172Y815D02*
X1179Y815D01*
X0Y814D02*
X7Y814D01*
X1172Y814D02*
X1179Y814D01*
X0Y813D02*
X7Y813D01*
X1172Y813D02*
X1179Y813D01*
X0Y812D02*
X7Y812D01*
X1172Y812D02*
X1179Y812D01*
X0Y811D02*
X7Y811D01*
X1172Y811D02*
X1179Y811D01*
X0Y810D02*
X7Y810D01*
X1172Y810D02*
X1179Y810D01*
X0Y809D02*
X7Y809D01*
X576Y809D02*
X597Y809D01*
X1172Y809D02*
X1179Y809D01*
X0Y808D02*
X7Y808D01*
X567Y808D02*
X606Y808D01*
X1172Y808D02*
X1179Y808D01*
X0Y807D02*
X7Y807D01*
X561Y807D02*
X612Y807D01*
X1172Y807D02*
X1179Y807D01*
X0Y806D02*
X7Y806D01*
X557Y806D02*
X616Y806D01*
X1172Y806D02*
X1179Y806D01*
X0Y805D02*
X7Y805D01*
X553Y805D02*
X621Y805D01*
X1172Y805D02*
X1179Y805D01*
X0Y804D02*
X7Y804D01*
X550Y804D02*
X624Y804D01*
X1172Y804D02*
X1179Y804D01*
X0Y803D02*
X7Y803D01*
X546Y803D02*
X627Y803D01*
X1172Y803D02*
X1179Y803D01*
X0Y802D02*
X7Y802D01*
X543Y802D02*
X630Y802D01*
X1172Y802D02*
X1179Y802D01*
X0Y801D02*
X7Y801D01*
X541Y801D02*
X632Y801D01*
X1172Y801D02*
X1179Y801D01*
X0Y800D02*
X7Y800D01*
X538Y800D02*
X635Y800D01*
X1172Y800D02*
X1179Y800D01*
X0Y799D02*
X7Y799D01*
X536Y799D02*
X575Y799D01*
X599Y799D02*
X637Y799D01*
X1172Y799D02*
X1179Y799D01*
X0Y798D02*
X7Y798D01*
X534Y798D02*
X566Y798D01*
X607Y798D02*
X639Y798D01*
X1172Y798D02*
X1179Y798D01*
X0Y797D02*
X7Y797D01*
X532Y797D02*
X560Y797D01*
X613Y797D02*
X642Y797D01*
X1172Y797D02*
X1179Y797D01*
X0Y796D02*
X7Y796D01*
X530Y796D02*
X556Y796D01*
X618Y796D02*
X643Y796D01*
X1172Y796D02*
X1179Y796D01*
X0Y795D02*
X7Y795D01*
X528Y795D02*
X552Y795D01*
X622Y795D02*
X645Y795D01*
X1172Y795D02*
X1179Y795D01*
X0Y794D02*
X7Y794D01*
X526Y794D02*
X548Y794D01*
X625Y794D02*
X647Y794D01*
X1172Y794D02*
X1179Y794D01*
X0Y793D02*
X7Y793D01*
X525Y793D02*
X545Y793D01*
X628Y793D02*
X649Y793D01*
X1172Y793D02*
X1179Y793D01*
X0Y792D02*
X7Y792D01*
X523Y792D02*
X543Y792D01*
X631Y792D02*
X650Y792D01*
X1172Y792D02*
X1179Y792D01*
X0Y791D02*
X7Y791D01*
X522Y791D02*
X540Y791D01*
X633Y791D02*
X652Y791D01*
X1172Y791D02*
X1179Y791D01*
X0Y790D02*
X7Y790D01*
X520Y790D02*
X538Y790D01*
X635Y790D02*
X653Y790D01*
X1172Y790D02*
X1179Y790D01*
X0Y789D02*
X7Y789D01*
X519Y789D02*
X536Y789D01*
X638Y789D02*
X655Y789D01*
X1172Y789D02*
X1179Y789D01*
X0Y788D02*
X7Y788D01*
X518Y788D02*
X534Y788D01*
X640Y788D02*
X656Y788D01*
X1172Y788D02*
X1179Y788D01*
X0Y787D02*
X7Y787D01*
X516Y787D02*
X532Y787D01*
X642Y787D02*
X657Y787D01*
X1172Y787D02*
X1179Y787D01*
X0Y786D02*
X7Y786D01*
X515Y786D02*
X530Y786D01*
X643Y786D02*
X658Y786D01*
X1172Y786D02*
X1179Y786D01*
X0Y785D02*
X7Y785D01*
X514Y785D02*
X528Y785D01*
X645Y785D02*
X659Y785D01*
X1172Y785D02*
X1179Y785D01*
X0Y784D02*
X7Y784D01*
X513Y784D02*
X527Y784D01*
X646Y784D02*
X660Y784D01*
X1172Y784D02*
X1179Y784D01*
X0Y783D02*
X7Y783D01*
X512Y783D02*
X525Y783D01*
X648Y783D02*
X661Y783D01*
X1172Y783D02*
X1179Y783D01*
X0Y782D02*
X7Y782D01*
X511Y782D02*
X524Y782D01*
X649Y782D02*
X662Y782D01*
X1172Y782D02*
X1179Y782D01*
X0Y781D02*
X7Y781D01*
X510Y781D02*
X523Y781D01*
X651Y781D02*
X663Y781D01*
X1172Y781D02*
X1179Y781D01*
X0Y780D02*
X7Y780D01*
X509Y780D02*
X521Y780D01*
X652Y780D02*
X664Y780D01*
X1172Y780D02*
X1179Y780D01*
X0Y779D02*
X7Y779D01*
X508Y779D02*
X520Y779D01*
X653Y779D02*
X665Y779D01*
X1172Y779D02*
X1179Y779D01*
X0Y778D02*
X7Y778D01*
X507Y778D02*
X519Y778D01*
X654Y778D02*
X666Y778D01*
X1172Y778D02*
X1179Y778D01*
X0Y777D02*
X7Y777D01*
X507Y777D02*
X518Y777D01*
X655Y777D02*
X667Y777D01*
X1172Y777D02*
X1179Y777D01*
X0Y776D02*
X7Y776D01*
X506Y776D02*
X517Y776D01*
X656Y776D02*
X668Y776D01*
X1172Y776D02*
X1179Y776D01*
X0Y775D02*
X7Y775D01*
X505Y775D02*
X516Y775D01*
X657Y775D02*
X668Y775D01*
X1172Y775D02*
X1179Y775D01*
X0Y774D02*
X7Y774D01*
X504Y774D02*
X515Y774D01*
X658Y774D02*
X669Y774D01*
X1172Y774D02*
X1179Y774D01*
X0Y773D02*
X7Y773D01*
X504Y773D02*
X514Y773D01*
X659Y773D02*
X670Y773D01*
X1172Y773D02*
X1179Y773D01*
X0Y772D02*
X7Y772D01*
X265Y772D02*
X266Y772D01*
X503Y772D02*
X514Y772D01*
X660Y772D02*
X670Y772D01*
X1172Y772D02*
X1179Y772D01*
X0Y771D02*
X7Y771D01*
X264Y771D02*
X268Y771D01*
X503Y771D02*
X513Y771D01*
X660Y771D02*
X671Y771D01*
X1172Y771D02*
X1179Y771D01*
X0Y770D02*
X7Y770D01*
X99Y770D02*
X101Y770D01*
X263Y770D02*
X270Y770D01*
X502Y770D02*
X512Y770D01*
X661Y770D02*
X671Y770D01*
X1172Y770D02*
X1179Y770D01*
X0Y769D02*
X7Y769D01*
X96Y769D02*
X101Y769D01*
X263Y769D02*
X271Y769D01*
X501Y769D02*
X512Y769D01*
X662Y769D02*
X672Y769D01*
X1172Y769D02*
X1179Y769D01*
X0Y768D02*
X7Y768D01*
X93Y768D02*
X102Y768D01*
X263Y768D02*
X272Y768D01*
X501Y768D02*
X511Y768D01*
X662Y768D02*
X672Y768D01*
X1172Y768D02*
X1179Y768D01*
X0Y767D02*
X7Y767D01*
X93Y767D02*
X102Y767D01*
X263Y767D02*
X272Y767D01*
X501Y767D02*
X510Y767D01*
X663Y767D02*
X673Y767D01*
X1172Y767D02*
X1179Y767D01*
X0Y766D02*
X7Y766D01*
X93Y766D02*
X102Y766D01*
X262Y766D02*
X272Y766D01*
X500Y766D02*
X510Y766D01*
X664Y766D02*
X673Y766D01*
X1172Y766D02*
X1179Y766D01*
X0Y765D02*
X7Y765D01*
X93Y765D02*
X102Y765D01*
X262Y765D02*
X272Y765D01*
X500Y765D02*
X509Y765D01*
X664Y765D02*
X674Y765D01*
X1172Y765D02*
X1179Y765D01*
X0Y764D02*
X7Y764D01*
X93Y764D02*
X102Y764D01*
X262Y764D02*
X271Y764D01*
X499Y764D02*
X509Y764D01*
X664Y764D02*
X674Y764D01*
X1172Y764D02*
X1179Y764D01*
X0Y763D02*
X7Y763D01*
X93Y763D02*
X102Y763D01*
X262Y763D02*
X271Y763D01*
X499Y763D02*
X509Y763D01*
X665Y763D02*
X674Y763D01*
X1172Y763D02*
X1179Y763D01*
X0Y762D02*
X7Y762D01*
X93Y762D02*
X102Y762D01*
X262Y762D02*
X271Y762D01*
X499Y762D02*
X508Y762D01*
X665Y762D02*
X675Y762D01*
X1172Y762D02*
X1179Y762D01*
X0Y761D02*
X7Y761D01*
X94Y761D02*
X103Y761D01*
X262Y761D02*
X271Y761D01*
X499Y761D02*
X508Y761D01*
X666Y761D02*
X675Y761D01*
X1172Y761D02*
X1179Y761D01*
X0Y760D02*
X7Y760D01*
X94Y760D02*
X103Y760D01*
X262Y760D02*
X271Y760D01*
X498Y760D02*
X508Y760D01*
X666Y760D02*
X675Y760D01*
X1172Y760D02*
X1179Y760D01*
X0Y759D02*
X7Y759D01*
X94Y759D02*
X103Y759D01*
X261Y759D02*
X271Y759D01*
X498Y759D02*
X507Y759D01*
X666Y759D02*
X675Y759D01*
X1172Y759D02*
X1179Y759D01*
X0Y758D02*
X7Y758D01*
X94Y758D02*
X104Y758D01*
X261Y758D02*
X270Y758D01*
X498Y758D02*
X507Y758D01*
X666Y758D02*
X676Y758D01*
X1172Y758D02*
X1179Y758D01*
X0Y757D02*
X7Y757D01*
X95Y757D02*
X104Y757D01*
X261Y757D02*
X270Y757D01*
X498Y757D02*
X507Y757D01*
X667Y757D02*
X676Y757D01*
X1172Y757D02*
X1179Y757D01*
X0Y756D02*
X7Y756D01*
X95Y756D02*
X104Y756D01*
X260Y756D02*
X270Y756D01*
X498Y756D02*
X507Y756D01*
X667Y756D02*
X676Y756D01*
X1172Y756D02*
X1179Y756D01*
X0Y755D02*
X7Y755D01*
X95Y755D02*
X105Y755D01*
X260Y755D02*
X269Y755D01*
X497Y755D02*
X507Y755D01*
X667Y755D02*
X676Y755D01*
X1172Y755D02*
X1179Y755D01*
X0Y754D02*
X7Y754D01*
X96Y754D02*
X105Y754D01*
X259Y754D02*
X269Y754D01*
X497Y754D02*
X507Y754D01*
X667Y754D02*
X676Y754D01*
X1172Y754D02*
X1179Y754D01*
X0Y753D02*
X7Y753D01*
X96Y753D02*
X106Y753D01*
X259Y753D02*
X269Y753D01*
X497Y753D02*
X506Y753D01*
X667Y753D02*
X676Y753D01*
X1172Y753D02*
X1179Y753D01*
X0Y752D02*
X7Y752D01*
X96Y752D02*
X106Y752D01*
X258Y752D02*
X268Y752D01*
X497Y752D02*
X506Y752D01*
X667Y752D02*
X676Y752D01*
X1172Y752D02*
X1179Y752D01*
X0Y751D02*
X7Y751D01*
X97Y751D02*
X107Y751D01*
X258Y751D02*
X268Y751D01*
X498Y751D02*
X506Y751D01*
X667Y751D02*
X675Y751D01*
X1172Y751D02*
X1179Y751D01*
X0Y750D02*
X7Y750D01*
X97Y750D02*
X107Y750D01*
X257Y750D02*
X267Y750D01*
X498Y750D02*
X506Y750D01*
X668Y750D02*
X672Y750D01*
X1172Y750D02*
X1179Y750D01*
X0Y749D02*
X7Y749D01*
X98Y749D02*
X108Y749D01*
X256Y749D02*
X267Y749D01*
X500Y749D02*
X505Y749D01*
X669Y749D02*
X669Y749D01*
X1172Y749D02*
X1179Y749D01*
X0Y748D02*
X7Y748D01*
X98Y748D02*
X109Y748D01*
X256Y748D02*
X266Y748D01*
X502Y748D02*
X504Y748D01*
X1172Y748D02*
X1179Y748D01*
X0Y747D02*
X7Y747D01*
X99Y747D02*
X110Y747D01*
X255Y747D02*
X265Y747D01*
X1172Y747D02*
X1179Y747D01*
X0Y746D02*
X7Y746D01*
X100Y746D02*
X110Y746D01*
X254Y746D02*
X264Y746D01*
X1172Y746D02*
X1179Y746D01*
X0Y745D02*
X7Y745D01*
X100Y745D02*
X111Y745D01*
X253Y745D02*
X262Y745D01*
X1172Y745D02*
X1179Y745D01*
X0Y744D02*
X7Y744D01*
X101Y744D02*
X112Y744D01*
X252Y744D02*
X261Y744D01*
X1172Y744D02*
X1179Y744D01*
X0Y743D02*
X7Y743D01*
X102Y743D02*
X113Y743D01*
X251Y743D02*
X259Y743D01*
X1172Y743D02*
X1179Y743D01*
X0Y742D02*
X7Y742D01*
X103Y742D02*
X114Y742D01*
X250Y742D02*
X258Y742D01*
X1172Y742D02*
X1179Y742D01*
X0Y741D02*
X7Y741D01*
X103Y741D02*
X115Y741D01*
X249Y741D02*
X257Y741D01*
X1172Y741D02*
X1179Y741D01*
X0Y740D02*
X7Y740D01*
X104Y740D02*
X116Y740D01*
X248Y740D02*
X256Y740D01*
X1172Y740D02*
X1179Y740D01*
X0Y739D02*
X7Y739D01*
X105Y739D02*
X118Y739D01*
X247Y739D02*
X255Y739D01*
X1172Y739D02*
X1179Y739D01*
X0Y738D02*
X7Y738D01*
X106Y738D02*
X119Y738D01*
X246Y738D02*
X254Y738D01*
X1172Y738D02*
X1179Y738D01*
X0Y737D02*
X7Y737D01*
X107Y737D02*
X120Y737D01*
X244Y737D02*
X253Y737D01*
X1172Y737D02*
X1179Y737D01*
X0Y736D02*
X7Y736D01*
X108Y736D02*
X122Y736D01*
X243Y736D02*
X252Y736D01*
X1172Y736D02*
X1179Y736D01*
X0Y735D02*
X7Y735D01*
X109Y735D02*
X123Y735D01*
X241Y735D02*
X251Y735D01*
X1172Y735D02*
X1179Y735D01*
X0Y734D02*
X7Y734D01*
X110Y734D02*
X125Y734D01*
X240Y734D02*
X250Y734D01*
X1172Y734D02*
X1179Y734D01*
X0Y733D02*
X7Y733D01*
X111Y733D02*
X126Y733D01*
X238Y733D02*
X250Y733D01*
X1172Y733D02*
X1179Y733D01*
X0Y732D02*
X7Y732D01*
X113Y732D02*
X128Y732D01*
X236Y732D02*
X249Y732D01*
X1172Y732D02*
X1179Y732D01*
X0Y731D02*
X7Y731D01*
X114Y731D02*
X130Y731D01*
X234Y731D02*
X248Y731D01*
X1172Y731D02*
X1179Y731D01*
X0Y730D02*
X7Y730D01*
X115Y730D02*
X132Y730D01*
X232Y730D02*
X248Y730D01*
X1172Y730D02*
X1179Y730D01*
X0Y729D02*
X7Y729D01*
X117Y729D02*
X135Y729D01*
X230Y729D02*
X247Y729D01*
X1172Y729D02*
X1179Y729D01*
X0Y728D02*
X7Y728D01*
X118Y728D02*
X137Y728D01*
X228Y728D02*
X246Y728D01*
X1172Y728D02*
X1179Y728D01*
X0Y727D02*
X7Y727D01*
X120Y727D02*
X140Y727D01*
X225Y727D02*
X245Y727D01*
X1172Y727D02*
X1179Y727D01*
X0Y726D02*
X7Y726D01*
X121Y726D02*
X142Y726D01*
X222Y726D02*
X243Y726D01*
X1172Y726D02*
X1179Y726D01*
X0Y725D02*
X7Y725D01*
X123Y725D02*
X146Y725D01*
X219Y725D02*
X242Y725D01*
X1172Y725D02*
X1179Y725D01*
X0Y724D02*
X7Y724D01*
X125Y724D02*
X149Y724D01*
X215Y724D02*
X240Y724D01*
X1172Y724D02*
X1179Y724D01*
X0Y723D02*
X7Y723D01*
X126Y723D02*
X153Y723D01*
X211Y723D02*
X238Y723D01*
X1172Y723D02*
X1179Y723D01*
X0Y722D02*
X7Y722D01*
X128Y722D02*
X158Y722D01*
X206Y722D02*
X236Y722D01*
X1172Y722D02*
X1179Y722D01*
X0Y721D02*
X7Y721D01*
X131Y721D02*
X165Y721D01*
X200Y721D02*
X234Y721D01*
X1172Y721D02*
X1179Y721D01*
X0Y720D02*
X7Y720D01*
X133Y720D02*
X181Y720D01*
X184Y720D02*
X232Y720D01*
X1172Y720D02*
X1179Y720D01*
X0Y719D02*
X7Y719D01*
X135Y719D02*
X229Y719D01*
X1172Y719D02*
X1179Y719D01*
X0Y718D02*
X7Y718D01*
X138Y718D02*
X227Y718D01*
X1172Y718D02*
X1179Y718D01*
X0Y717D02*
X7Y717D01*
X140Y717D02*
X224Y717D01*
X1172Y717D02*
X1179Y717D01*
X0Y716D02*
X7Y716D01*
X143Y716D02*
X221Y716D01*
X1172Y716D02*
X1179Y716D01*
X0Y715D02*
X7Y715D01*
X147Y715D02*
X218Y715D01*
X1172Y715D02*
X1179Y715D01*
X0Y714D02*
X7Y714D01*
X150Y714D02*
X214Y714D01*
X1172Y714D02*
X1179Y714D01*
X0Y713D02*
X7Y713D01*
X155Y713D02*
X210Y713D01*
X1172Y713D02*
X1179Y713D01*
X0Y712D02*
X7Y712D01*
X160Y712D02*
X205Y712D01*
X1172Y712D02*
X1179Y712D01*
X0Y711D02*
X7Y711D01*
X166Y711D02*
X198Y711D01*
X1172Y711D02*
X1179Y711D01*
X0Y710D02*
X7Y710D01*
X182Y710D02*
X184Y710D01*
X1172Y710D02*
X1179Y710D01*
X0Y709D02*
X7Y709D01*
X1172Y709D02*
X1179Y709D01*
X0Y708D02*
X7Y708D01*
X1172Y708D02*
X1179Y708D01*
X0Y707D02*
X7Y707D01*
X1172Y707D02*
X1179Y707D01*
X0Y706D02*
X7Y706D01*
X1172Y706D02*
X1179Y706D01*
X0Y705D02*
X7Y705D01*
X1172Y705D02*
X1179Y705D01*
X0Y704D02*
X7Y704D01*
X1172Y704D02*
X1179Y704D01*
X0Y703D02*
X7Y703D01*
X1172Y703D02*
X1179Y703D01*
X0Y702D02*
X7Y702D01*
X1172Y702D02*
X1179Y702D01*
X0Y701D02*
X7Y701D01*
X1172Y701D02*
X1179Y701D01*
X0Y700D02*
X7Y700D01*
X1172Y700D02*
X1179Y700D01*
X0Y699D02*
X7Y699D01*
X1172Y699D02*
X1179Y699D01*
X0Y698D02*
X7Y698D01*
X1172Y698D02*
X1179Y698D01*
X0Y697D02*
X7Y697D01*
X1172Y697D02*
X1179Y697D01*
X0Y696D02*
X7Y696D01*
X1172Y696D02*
X1179Y696D01*
X0Y695D02*
X7Y695D01*
X1172Y695D02*
X1179Y695D01*
X0Y694D02*
X7Y694D01*
X1172Y694D02*
X1179Y694D01*
X0Y693D02*
X7Y693D01*
X1172Y693D02*
X1179Y693D01*
X0Y692D02*
X7Y692D01*
X1172Y692D02*
X1179Y692D01*
X0Y691D02*
X7Y691D01*
X1172Y691D02*
X1179Y691D01*
X0Y690D02*
X7Y690D01*
X1172Y690D02*
X1179Y690D01*
X0Y689D02*
X7Y689D01*
X1172Y689D02*
X1179Y689D01*
X0Y688D02*
X7Y688D01*
X1172Y688D02*
X1179Y688D01*
X0Y687D02*
X7Y687D01*
X1172Y687D02*
X1179Y687D01*
X0Y686D02*
X7Y686D01*
X1172Y686D02*
X1179Y686D01*
X0Y685D02*
X7Y685D01*
X1172Y685D02*
X1179Y685D01*
X0Y684D02*
X7Y684D01*
X1172Y684D02*
X1179Y684D01*
X0Y683D02*
X7Y683D01*
X1172Y683D02*
X1179Y683D01*
X0Y682D02*
X7Y682D01*
X1172Y682D02*
X1179Y682D01*
X0Y681D02*
X7Y681D01*
X1172Y681D02*
X1179Y681D01*
X0Y680D02*
X7Y680D01*
X1172Y680D02*
X1179Y680D01*
X0Y679D02*
X7Y679D01*
X1172Y679D02*
X1179Y679D01*
X0Y678D02*
X7Y678D01*
X1172Y678D02*
X1179Y678D01*
X0Y677D02*
X7Y677D01*
X1172Y677D02*
X1179Y677D01*
X0Y676D02*
X7Y676D01*
X1172Y676D02*
X1179Y676D01*
X0Y675D02*
X7Y675D01*
X1172Y675D02*
X1179Y675D01*
X0Y674D02*
X7Y674D01*
X1172Y674D02*
X1179Y674D01*
X0Y673D02*
X7Y673D01*
X1172Y673D02*
X1179Y673D01*
X0Y672D02*
X7Y672D01*
X1172Y672D02*
X1179Y672D01*
X0Y671D02*
X7Y671D01*
X1172Y671D02*
X1179Y671D01*
X0Y670D02*
X7Y670D01*
X1172Y670D02*
X1179Y670D01*
X0Y669D02*
X7Y669D01*
X1172Y669D02*
X1179Y669D01*
X0Y668D02*
X7Y668D01*
X1172Y668D02*
X1179Y668D01*
X0Y667D02*
X7Y667D01*
X280Y667D02*
X289Y667D01*
X1172Y667D02*
X1179Y667D01*
X0Y666D02*
X7Y666D01*
X280Y666D02*
X289Y666D01*
X1172Y666D02*
X1179Y666D01*
X0Y665D02*
X7Y665D01*
X280Y665D02*
X289Y665D01*
X1172Y665D02*
X1179Y665D01*
X0Y664D02*
X7Y664D01*
X280Y664D02*
X289Y664D01*
X1172Y664D02*
X1179Y664D01*
X0Y663D02*
X7Y663D01*
X280Y663D02*
X289Y663D01*
X1172Y663D02*
X1179Y663D01*
X0Y662D02*
X7Y662D01*
X280Y662D02*
X289Y662D01*
X1172Y662D02*
X1179Y662D01*
X0Y661D02*
X7Y661D01*
X280Y661D02*
X289Y661D01*
X1172Y661D02*
X1179Y661D01*
X0Y660D02*
X7Y660D01*
X280Y660D02*
X289Y660D01*
X1172Y660D02*
X1179Y660D01*
X0Y659D02*
X7Y659D01*
X280Y659D02*
X289Y659D01*
X1172Y659D02*
X1179Y659D01*
X0Y658D02*
X7Y658D01*
X280Y658D02*
X289Y658D01*
X1172Y658D02*
X1179Y658D01*
X0Y657D02*
X7Y657D01*
X280Y657D02*
X289Y657D01*
X1172Y657D02*
X1179Y657D01*
X0Y656D02*
X7Y656D01*
X280Y656D02*
X289Y656D01*
X1172Y656D02*
X1179Y656D01*
X0Y655D02*
X7Y655D01*
X280Y655D02*
X289Y655D01*
X1172Y655D02*
X1179Y655D01*
X0Y654D02*
X7Y654D01*
X280Y654D02*
X289Y654D01*
X1172Y654D02*
X1179Y654D01*
X0Y653D02*
X7Y653D01*
X280Y653D02*
X289Y653D01*
X1172Y653D02*
X1179Y653D01*
X0Y652D02*
X7Y652D01*
X280Y652D02*
X289Y652D01*
X1172Y652D02*
X1179Y652D01*
X0Y651D02*
X7Y651D01*
X280Y651D02*
X289Y651D01*
X1172Y651D02*
X1179Y651D01*
X0Y650D02*
X7Y650D01*
X280Y650D02*
X289Y650D01*
X1172Y650D02*
X1179Y650D01*
X0Y649D02*
X7Y649D01*
X280Y649D02*
X289Y649D01*
X1172Y649D02*
X1179Y649D01*
X0Y648D02*
X7Y648D01*
X280Y648D02*
X289Y648D01*
X1172Y648D02*
X1179Y648D01*
X0Y647D02*
X7Y647D01*
X280Y647D02*
X289Y647D01*
X1172Y647D02*
X1179Y647D01*
X0Y646D02*
X7Y646D01*
X280Y646D02*
X289Y646D01*
X1172Y646D02*
X1179Y646D01*
X0Y645D02*
X7Y645D01*
X280Y645D02*
X289Y645D01*
X1172Y645D02*
X1179Y645D01*
X0Y644D02*
X7Y644D01*
X280Y644D02*
X289Y644D01*
X1172Y644D02*
X1179Y644D01*
X0Y643D02*
X7Y643D01*
X280Y643D02*
X289Y643D01*
X1172Y643D02*
X1179Y643D01*
X0Y642D02*
X7Y642D01*
X280Y642D02*
X289Y642D01*
X1172Y642D02*
X1179Y642D01*
X0Y641D02*
X7Y641D01*
X280Y641D02*
X289Y641D01*
X1172Y641D02*
X1179Y641D01*
X0Y640D02*
X7Y640D01*
X280Y640D02*
X289Y640D01*
X1172Y640D02*
X1179Y640D01*
X0Y639D02*
X7Y639D01*
X280Y639D02*
X289Y639D01*
X1172Y639D02*
X1179Y639D01*
X0Y638D02*
X7Y638D01*
X280Y638D02*
X289Y638D01*
X1172Y638D02*
X1179Y638D01*
X0Y637D02*
X7Y637D01*
X280Y637D02*
X289Y637D01*
X1172Y637D02*
X1179Y637D01*
X0Y636D02*
X7Y636D01*
X280Y636D02*
X289Y636D01*
X1172Y636D02*
X1179Y636D01*
X0Y635D02*
X7Y635D01*
X280Y635D02*
X289Y635D01*
X1172Y635D02*
X1179Y635D01*
X0Y634D02*
X7Y634D01*
X280Y634D02*
X289Y634D01*
X1172Y634D02*
X1179Y634D01*
X0Y633D02*
X7Y633D01*
X280Y633D02*
X289Y633D01*
X1172Y633D02*
X1179Y633D01*
X0Y632D02*
X7Y632D01*
X280Y632D02*
X289Y632D01*
X1172Y632D02*
X1179Y632D01*
X0Y631D02*
X7Y631D01*
X280Y631D02*
X289Y631D01*
X1172Y631D02*
X1179Y631D01*
X0Y630D02*
X7Y630D01*
X280Y630D02*
X289Y630D01*
X1172Y630D02*
X1179Y630D01*
X0Y629D02*
X7Y629D01*
X280Y629D02*
X289Y629D01*
X1172Y629D02*
X1179Y629D01*
X0Y628D02*
X7Y628D01*
X280Y628D02*
X289Y628D01*
X1172Y628D02*
X1179Y628D01*
X0Y627D02*
X7Y627D01*
X280Y627D02*
X289Y627D01*
X1172Y627D02*
X1179Y627D01*
X0Y626D02*
X7Y626D01*
X280Y626D02*
X289Y626D01*
X1172Y626D02*
X1179Y626D01*
X0Y625D02*
X7Y625D01*
X280Y625D02*
X289Y625D01*
X1172Y625D02*
X1179Y625D01*
X0Y624D02*
X7Y624D01*
X280Y624D02*
X289Y624D01*
X1172Y624D02*
X1179Y624D01*
X0Y623D02*
X7Y623D01*
X280Y623D02*
X289Y623D01*
X1172Y623D02*
X1179Y623D01*
X0Y622D02*
X7Y622D01*
X280Y622D02*
X289Y622D01*
X1172Y622D02*
X1179Y622D01*
X0Y621D02*
X7Y621D01*
X280Y621D02*
X289Y621D01*
X1172Y621D02*
X1179Y621D01*
X0Y620D02*
X7Y620D01*
X280Y620D02*
X289Y620D01*
X1172Y620D02*
X1179Y620D01*
X0Y619D02*
X7Y619D01*
X280Y619D02*
X289Y619D01*
X1172Y619D02*
X1179Y619D01*
X0Y618D02*
X7Y618D01*
X280Y618D02*
X289Y618D01*
X1172Y618D02*
X1179Y618D01*
X0Y617D02*
X7Y617D01*
X280Y617D02*
X289Y617D01*
X1172Y617D02*
X1179Y617D01*
X0Y616D02*
X7Y616D01*
X280Y616D02*
X289Y616D01*
X1172Y616D02*
X1179Y616D01*
X0Y615D02*
X7Y615D01*
X280Y615D02*
X289Y615D01*
X1172Y615D02*
X1179Y615D01*
X0Y614D02*
X7Y614D01*
X280Y614D02*
X289Y614D01*
X1172Y614D02*
X1179Y614D01*
X0Y613D02*
X7Y613D01*
X280Y613D02*
X289Y613D01*
X1172Y613D02*
X1179Y613D01*
X0Y612D02*
X7Y612D01*
X280Y612D02*
X289Y612D01*
X1172Y612D02*
X1179Y612D01*
X0Y611D02*
X7Y611D01*
X280Y611D02*
X289Y611D01*
X1172Y611D02*
X1179Y611D01*
X0Y610D02*
X7Y610D01*
X280Y610D02*
X289Y610D01*
X1172Y610D02*
X1179Y610D01*
X0Y609D02*
X7Y609D01*
X280Y609D02*
X289Y609D01*
X1172Y609D02*
X1179Y609D01*
X0Y608D02*
X7Y608D01*
X280Y608D02*
X289Y608D01*
X1172Y608D02*
X1179Y608D01*
X0Y607D02*
X7Y607D01*
X280Y607D02*
X289Y607D01*
X1172Y607D02*
X1179Y607D01*
X0Y606D02*
X7Y606D01*
X280Y606D02*
X289Y606D01*
X1172Y606D02*
X1179Y606D01*
X0Y605D02*
X7Y605D01*
X280Y605D02*
X289Y605D01*
X1172Y605D02*
X1179Y605D01*
X0Y604D02*
X7Y604D01*
X280Y604D02*
X289Y604D01*
X1172Y604D02*
X1179Y604D01*
X0Y603D02*
X7Y603D01*
X280Y603D02*
X289Y603D01*
X1172Y603D02*
X1179Y603D01*
X0Y602D02*
X7Y602D01*
X280Y602D02*
X289Y602D01*
X1172Y602D02*
X1179Y602D01*
X0Y601D02*
X7Y601D01*
X280Y601D02*
X289Y601D01*
X1172Y601D02*
X1179Y601D01*
X0Y600D02*
X7Y600D01*
X1172Y600D02*
X1179Y600D01*
X0Y599D02*
X7Y599D01*
X1172Y599D02*
X1179Y599D01*
X0Y598D02*
X7Y598D01*
X1172Y598D02*
X1179Y598D01*
X0Y597D02*
X7Y597D01*
X1172Y597D02*
X1179Y597D01*
X0Y596D02*
X7Y596D01*
X1172Y596D02*
X1179Y596D01*
X0Y595D02*
X7Y595D01*
X1172Y595D02*
X1179Y595D01*
X0Y594D02*
X7Y594D01*
X1172Y594D02*
X1179Y594D01*
X0Y593D02*
X7Y593D01*
X1172Y593D02*
X1179Y593D01*
X0Y592D02*
X7Y592D01*
X1172Y592D02*
X1179Y592D01*
X0Y591D02*
X7Y591D01*
X1172Y591D02*
X1179Y591D01*
X0Y590D02*
X7Y590D01*
X1172Y590D02*
X1179Y590D01*
X0Y589D02*
X7Y589D01*
X1172Y589D02*
X1179Y589D01*
X0Y588D02*
X7Y588D01*
X1172Y588D02*
X1179Y588D01*
X0Y587D02*
X7Y587D01*
X1172Y587D02*
X1179Y587D01*
X0Y586D02*
X7Y586D01*
X1172Y586D02*
X1179Y586D01*
X0Y585D02*
X7Y585D01*
X1172Y585D02*
X1179Y585D01*
X0Y584D02*
X7Y584D01*
X1172Y584D02*
X1179Y584D01*
X0Y583D02*
X7Y583D01*
X1172Y583D02*
X1179Y583D01*
X0Y582D02*
X7Y582D01*
X1172Y582D02*
X1179Y582D01*
X0Y581D02*
X7Y581D01*
X1172Y581D02*
X1179Y581D01*
X0Y580D02*
X7Y580D01*
X1172Y580D02*
X1179Y580D01*
X0Y579D02*
X7Y579D01*
X1172Y579D02*
X1179Y579D01*
X0Y578D02*
X7Y578D01*
X1172Y578D02*
X1179Y578D01*
X0Y577D02*
X7Y577D01*
X1172Y577D02*
X1179Y577D01*
X0Y576D02*
X7Y576D01*
X1172Y576D02*
X1179Y576D01*
X0Y575D02*
X7Y575D01*
X1172Y575D02*
X1179Y575D01*
X0Y574D02*
X7Y574D01*
X1172Y574D02*
X1179Y574D01*
X0Y573D02*
X7Y573D01*
X1172Y573D02*
X1179Y573D01*
X0Y572D02*
X7Y572D01*
X1172Y572D02*
X1179Y572D01*
X0Y571D02*
X7Y571D01*
X1172Y571D02*
X1179Y571D01*
X0Y570D02*
X7Y570D01*
X1172Y570D02*
X1179Y570D01*
X0Y569D02*
X7Y569D01*
X1172Y569D02*
X1179Y569D01*
X0Y568D02*
X7Y568D01*
X1172Y568D02*
X1179Y568D01*
X0Y567D02*
X7Y567D01*
X180Y567D02*
X189Y567D01*
X1172Y567D02*
X1179Y567D01*
X0Y566D02*
X7Y566D01*
X180Y566D02*
X189Y566D01*
X1172Y566D02*
X1179Y566D01*
X0Y565D02*
X7Y565D01*
X180Y565D02*
X189Y565D01*
X1172Y565D02*
X1179Y565D01*
X0Y564D02*
X7Y564D01*
X180Y564D02*
X189Y564D01*
X1172Y564D02*
X1179Y564D01*
X0Y563D02*
X7Y563D01*
X180Y563D02*
X189Y563D01*
X1172Y563D02*
X1179Y563D01*
X0Y562D02*
X7Y562D01*
X180Y562D02*
X189Y562D01*
X1172Y562D02*
X1179Y562D01*
X0Y561D02*
X7Y561D01*
X180Y561D02*
X189Y561D01*
X1172Y561D02*
X1179Y561D01*
X0Y560D02*
X7Y560D01*
X180Y560D02*
X189Y560D01*
X1172Y560D02*
X1179Y560D01*
X0Y559D02*
X7Y559D01*
X180Y559D02*
X189Y559D01*
X1172Y559D02*
X1179Y559D01*
X0Y558D02*
X7Y558D01*
X180Y558D02*
X189Y558D01*
X1172Y558D02*
X1179Y558D01*
X0Y557D02*
X7Y557D01*
X180Y557D02*
X189Y557D01*
X1172Y557D02*
X1179Y557D01*
X0Y556D02*
X7Y556D01*
X180Y556D02*
X189Y556D01*
X1172Y556D02*
X1179Y556D01*
X0Y555D02*
X7Y555D01*
X180Y555D02*
X189Y555D01*
X1172Y555D02*
X1179Y555D01*
X0Y554D02*
X7Y554D01*
X180Y554D02*
X189Y554D01*
X1172Y554D02*
X1179Y554D01*
X0Y553D02*
X7Y553D01*
X180Y553D02*
X189Y553D01*
X1172Y553D02*
X1179Y553D01*
X0Y552D02*
X7Y552D01*
X180Y552D02*
X189Y552D01*
X1172Y552D02*
X1179Y552D01*
X0Y551D02*
X7Y551D01*
X180Y551D02*
X189Y551D01*
X1172Y551D02*
X1179Y551D01*
X0Y550D02*
X7Y550D01*
X180Y550D02*
X189Y550D01*
X1172Y550D02*
X1179Y550D01*
X0Y549D02*
X7Y549D01*
X180Y549D02*
X189Y549D01*
X1172Y549D02*
X1179Y549D01*
X0Y548D02*
X7Y548D01*
X180Y548D02*
X189Y548D01*
X1172Y548D02*
X1179Y548D01*
X0Y547D02*
X7Y547D01*
X180Y547D02*
X189Y547D01*
X1172Y547D02*
X1179Y547D01*
X0Y546D02*
X7Y546D01*
X180Y546D02*
X189Y546D01*
X1172Y546D02*
X1179Y546D01*
X0Y545D02*
X7Y545D01*
X180Y545D02*
X189Y545D01*
X1172Y545D02*
X1179Y545D01*
X0Y544D02*
X7Y544D01*
X180Y544D02*
X189Y544D01*
X1172Y544D02*
X1179Y544D01*
X0Y543D02*
X7Y543D01*
X180Y543D02*
X189Y543D01*
X1172Y543D02*
X1179Y543D01*
X0Y542D02*
X7Y542D01*
X180Y542D02*
X189Y542D01*
X1172Y542D02*
X1179Y542D01*
X0Y541D02*
X7Y541D01*
X180Y541D02*
X189Y541D01*
X1172Y541D02*
X1179Y541D01*
X0Y540D02*
X7Y540D01*
X180Y540D02*
X189Y540D01*
X1172Y540D02*
X1179Y540D01*
X0Y539D02*
X7Y539D01*
X180Y539D02*
X189Y539D01*
X1172Y539D02*
X1179Y539D01*
X0Y538D02*
X7Y538D01*
X180Y538D02*
X189Y538D01*
X1172Y538D02*
X1179Y538D01*
X0Y537D02*
X7Y537D01*
X180Y537D02*
X189Y537D01*
X1172Y537D02*
X1179Y537D01*
X0Y536D02*
X7Y536D01*
X180Y536D02*
X189Y536D01*
X1172Y536D02*
X1179Y536D01*
X0Y535D02*
X7Y535D01*
X180Y535D02*
X189Y535D01*
X1172Y535D02*
X1179Y535D01*
X0Y534D02*
X7Y534D01*
X180Y534D02*
X189Y534D01*
X1172Y534D02*
X1179Y534D01*
X0Y533D02*
X7Y533D01*
X180Y533D02*
X189Y533D01*
X1172Y533D02*
X1179Y533D01*
X0Y532D02*
X7Y532D01*
X180Y532D02*
X189Y532D01*
X1172Y532D02*
X1179Y532D01*
X0Y531D02*
X7Y531D01*
X180Y531D02*
X189Y531D01*
X1172Y531D02*
X1179Y531D01*
X0Y530D02*
X7Y530D01*
X180Y530D02*
X189Y530D01*
X1172Y530D02*
X1179Y530D01*
X0Y529D02*
X7Y529D01*
X180Y529D02*
X189Y529D01*
X1172Y529D02*
X1179Y529D01*
X0Y528D02*
X7Y528D01*
X180Y528D02*
X189Y528D01*
X1172Y528D02*
X1179Y528D01*
X0Y527D02*
X7Y527D01*
X180Y527D02*
X189Y527D01*
X1172Y527D02*
X1179Y527D01*
X0Y526D02*
X7Y526D01*
X180Y526D02*
X189Y526D01*
X1172Y526D02*
X1179Y526D01*
X0Y525D02*
X7Y525D01*
X180Y525D02*
X189Y525D01*
X1172Y525D02*
X1179Y525D01*
X0Y524D02*
X7Y524D01*
X180Y524D02*
X189Y524D01*
X1172Y524D02*
X1179Y524D01*
X0Y523D02*
X7Y523D01*
X180Y523D02*
X189Y523D01*
X1172Y523D02*
X1179Y523D01*
X0Y522D02*
X7Y522D01*
X180Y522D02*
X189Y522D01*
X1172Y522D02*
X1179Y522D01*
X0Y521D02*
X7Y521D01*
X180Y521D02*
X189Y521D01*
X1172Y521D02*
X1179Y521D01*
X0Y520D02*
X7Y520D01*
X180Y520D02*
X189Y520D01*
X1172Y520D02*
X1179Y520D01*
X0Y519D02*
X7Y519D01*
X180Y519D02*
X189Y519D01*
X1172Y519D02*
X1179Y519D01*
X0Y518D02*
X7Y518D01*
X180Y518D02*
X189Y518D01*
X1172Y518D02*
X1179Y518D01*
X0Y517D02*
X7Y517D01*
X180Y517D02*
X189Y517D01*
X1172Y517D02*
X1179Y517D01*
X0Y516D02*
X7Y516D01*
X180Y516D02*
X189Y516D01*
X1172Y516D02*
X1179Y516D01*
X0Y515D02*
X7Y515D01*
X180Y515D02*
X189Y515D01*
X1172Y515D02*
X1179Y515D01*
X0Y514D02*
X7Y514D01*
X180Y514D02*
X189Y514D01*
X1172Y514D02*
X1179Y514D01*
X0Y513D02*
X7Y513D01*
X180Y513D02*
X189Y513D01*
X1172Y513D02*
X1179Y513D01*
X0Y512D02*
X7Y512D01*
X180Y512D02*
X189Y512D01*
X1172Y512D02*
X1179Y512D01*
X0Y511D02*
X7Y511D01*
X180Y511D02*
X189Y511D01*
X1172Y511D02*
X1179Y511D01*
X0Y510D02*
X7Y510D01*
X180Y510D02*
X189Y510D01*
X1172Y510D02*
X1179Y510D01*
X0Y509D02*
X7Y509D01*
X180Y509D02*
X189Y509D01*
X1172Y509D02*
X1179Y509D01*
X0Y508D02*
X7Y508D01*
X180Y508D02*
X189Y508D01*
X1172Y508D02*
X1179Y508D01*
X0Y507D02*
X7Y507D01*
X180Y507D02*
X189Y507D01*
X1172Y507D02*
X1179Y507D01*
X0Y506D02*
X7Y506D01*
X180Y506D02*
X189Y506D01*
X1172Y506D02*
X1179Y506D01*
X0Y505D02*
X7Y505D01*
X180Y505D02*
X189Y505D01*
X1172Y505D02*
X1179Y505D01*
X0Y504D02*
X7Y504D01*
X180Y504D02*
X189Y504D01*
X1172Y504D02*
X1179Y504D01*
X0Y503D02*
X7Y503D01*
X180Y503D02*
X189Y503D01*
X1172Y503D02*
X1179Y503D01*
X0Y502D02*
X7Y502D01*
X180Y502D02*
X189Y502D01*
X1172Y502D02*
X1179Y502D01*
X0Y501D02*
X7Y501D01*
X180Y501D02*
X189Y501D01*
X1172Y501D02*
X1179Y501D01*
X0Y500D02*
X7Y500D01*
X1172Y500D02*
X1179Y500D01*
X0Y499D02*
X7Y499D01*
X1172Y499D02*
X1179Y499D01*
X0Y498D02*
X7Y498D01*
X1172Y498D02*
X1179Y498D01*
X0Y497D02*
X7Y497D01*
X1172Y497D02*
X1179Y497D01*
X0Y496D02*
X7Y496D01*
X1172Y496D02*
X1179Y496D01*
X0Y495D02*
X7Y495D01*
X1172Y495D02*
X1179Y495D01*
X0Y494D02*
X7Y494D01*
X1172Y494D02*
X1179Y494D01*
X0Y493D02*
X7Y493D01*
X1172Y493D02*
X1179Y493D01*
X0Y492D02*
X7Y492D01*
X1172Y492D02*
X1179Y492D01*
X0Y491D02*
X7Y491D01*
X1172Y491D02*
X1179Y491D01*
X0Y490D02*
X7Y490D01*
X1172Y490D02*
X1179Y490D01*
X0Y489D02*
X7Y489D01*
X1172Y489D02*
X1179Y489D01*
X0Y488D02*
X7Y488D01*
X1172Y488D02*
X1179Y488D01*
X0Y487D02*
X7Y487D01*
X1172Y487D02*
X1179Y487D01*
X0Y486D02*
X7Y486D01*
X1172Y486D02*
X1179Y486D01*
X0Y485D02*
X7Y485D01*
X1172Y485D02*
X1179Y485D01*
X0Y484D02*
X7Y484D01*
X1172Y484D02*
X1179Y484D01*
X0Y483D02*
X7Y483D01*
X1172Y483D02*
X1179Y483D01*
X0Y482D02*
X7Y482D01*
X1172Y482D02*
X1179Y482D01*
X0Y481D02*
X7Y481D01*
X1172Y481D02*
X1179Y481D01*
X0Y480D02*
X7Y480D01*
X1172Y480D02*
X1179Y480D01*
X0Y479D02*
X7Y479D01*
X1172Y479D02*
X1179Y479D01*
X0Y478D02*
X7Y478D01*
X1172Y478D02*
X1179Y478D01*
X0Y477D02*
X7Y477D01*
X1172Y477D02*
X1179Y477D01*
X0Y476D02*
X7Y476D01*
X1172Y476D02*
X1179Y476D01*
X0Y475D02*
X7Y475D01*
X1172Y475D02*
X1179Y475D01*
X0Y474D02*
X7Y474D01*
X1172Y474D02*
X1179Y474D01*
X0Y473D02*
X7Y473D01*
X1172Y473D02*
X1179Y473D01*
X0Y472D02*
X7Y472D01*
X1172Y472D02*
X1179Y472D01*
X0Y471D02*
X7Y471D01*
X1172Y471D02*
X1179Y471D01*
X0Y470D02*
X7Y470D01*
X1172Y470D02*
X1179Y470D01*
X0Y469D02*
X7Y469D01*
X1172Y469D02*
X1179Y469D01*
X0Y468D02*
X7Y468D01*
X1172Y468D02*
X1179Y468D01*
X0Y467D02*
X7Y467D01*
X1172Y467D02*
X1179Y467D01*
X0Y466D02*
X7Y466D01*
X1172Y466D02*
X1179Y466D01*
X0Y465D02*
X7Y465D01*
X1172Y465D02*
X1179Y465D01*
X0Y464D02*
X7Y464D01*
X1172Y464D02*
X1179Y464D01*
X0Y463D02*
X7Y463D01*
X1172Y463D02*
X1179Y463D01*
X0Y462D02*
X7Y462D01*
X1172Y462D02*
X1179Y462D01*
X0Y461D02*
X7Y461D01*
X1172Y461D02*
X1179Y461D01*
X0Y460D02*
X7Y460D01*
X1172Y460D02*
X1179Y460D01*
X0Y459D02*
X7Y459D01*
X1172Y459D02*
X1179Y459D01*
X0Y458D02*
X7Y458D01*
X1172Y458D02*
X1179Y458D01*
X0Y457D02*
X7Y457D01*
X1172Y457D02*
X1179Y457D01*
X0Y456D02*
X7Y456D01*
X1172Y456D02*
X1179Y456D01*
X0Y455D02*
X7Y455D01*
X1172Y455D02*
X1179Y455D01*
X0Y454D02*
X7Y454D01*
X1172Y454D02*
X1179Y454D01*
X0Y453D02*
X7Y453D01*
X1172Y453D02*
X1179Y453D01*
X0Y452D02*
X7Y452D01*
X1172Y452D02*
X1179Y452D01*
X0Y451D02*
X7Y451D01*
X1172Y451D02*
X1179Y451D01*
X0Y450D02*
X7Y450D01*
X1172Y450D02*
X1179Y450D01*
X0Y449D02*
X7Y449D01*
X1172Y449D02*
X1179Y449D01*
X0Y448D02*
X7Y448D01*
X1172Y448D02*
X1179Y448D01*
X0Y447D02*
X7Y447D01*
X1172Y447D02*
X1179Y447D01*
X0Y446D02*
X7Y446D01*
X1172Y446D02*
X1179Y446D01*
X0Y445D02*
X7Y445D01*
X1172Y445D02*
X1179Y445D01*
X0Y444D02*
X7Y444D01*
X1172Y444D02*
X1179Y444D01*
X0Y443D02*
X7Y443D01*
X1172Y443D02*
X1179Y443D01*
X0Y442D02*
X7Y442D01*
X1172Y442D02*
X1179Y442D01*
X0Y441D02*
X7Y441D01*
X1172Y441D02*
X1179Y441D01*
X0Y440D02*
X7Y440D01*
X1172Y440D02*
X1179Y440D01*
X0Y439D02*
X7Y439D01*
X1172Y439D02*
X1179Y439D01*
X0Y438D02*
X7Y438D01*
X1172Y438D02*
X1179Y438D01*
X0Y437D02*
X7Y437D01*
X1172Y437D02*
X1179Y437D01*
X0Y436D02*
X7Y436D01*
X1172Y436D02*
X1179Y436D01*
X0Y435D02*
X7Y435D01*
X1172Y435D02*
X1179Y435D01*
X0Y434D02*
X7Y434D01*
X1172Y434D02*
X1179Y434D01*
X0Y433D02*
X7Y433D01*
X1172Y433D02*
X1179Y433D01*
X0Y432D02*
X7Y432D01*
X1172Y432D02*
X1179Y432D01*
X0Y431D02*
X7Y431D01*
X1172Y431D02*
X1179Y431D01*
X0Y430D02*
X7Y430D01*
X1172Y430D02*
X1179Y430D01*
X0Y429D02*
X7Y429D01*
X1172Y429D02*
X1179Y429D01*
X0Y428D02*
X7Y428D01*
X1172Y428D02*
X1179Y428D01*
X0Y427D02*
X7Y427D01*
X1172Y427D02*
X1179Y427D01*
X0Y426D02*
X7Y426D01*
X1172Y426D02*
X1179Y426D01*
X0Y425D02*
X7Y425D01*
X1172Y425D02*
X1179Y425D01*
X0Y424D02*
X7Y424D01*
X1172Y424D02*
X1179Y424D01*
X0Y423D02*
X7Y423D01*
X1172Y423D02*
X1179Y423D01*
X0Y422D02*
X7Y422D01*
X1172Y422D02*
X1179Y422D01*
X0Y421D02*
X7Y421D01*
X1172Y421D02*
X1179Y421D01*
X0Y420D02*
X7Y420D01*
X1172Y420D02*
X1179Y420D01*
X0Y419D02*
X7Y419D01*
X1172Y419D02*
X1179Y419D01*
X0Y418D02*
X7Y418D01*
X1172Y418D02*
X1179Y418D01*
X0Y417D02*
X7Y417D01*
X1172Y417D02*
X1179Y417D01*
X0Y416D02*
X7Y416D01*
X1172Y416D02*
X1179Y416D01*
X0Y415D02*
X7Y415D01*
X1172Y415D02*
X1179Y415D01*
X0Y414D02*
X7Y414D01*
X1172Y414D02*
X1179Y414D01*
X0Y413D02*
X7Y413D01*
X1172Y413D02*
X1179Y413D01*
X0Y412D02*
X7Y412D01*
X1172Y412D02*
X1179Y412D01*
X0Y411D02*
X7Y411D01*
X1172Y411D02*
X1179Y411D01*
X0Y410D02*
X7Y410D01*
X1172Y410D02*
X1179Y410D01*
X0Y409D02*
X7Y409D01*
X1172Y409D02*
X1179Y409D01*
X0Y408D02*
X7Y408D01*
X1172Y408D02*
X1179Y408D01*
X0Y407D02*
X7Y407D01*
X1172Y407D02*
X1179Y407D01*
X0Y406D02*
X7Y406D01*
X1172Y406D02*
X1179Y406D01*
X0Y405D02*
X7Y405D01*
X1172Y405D02*
X1179Y405D01*
X0Y404D02*
X7Y404D01*
X1172Y404D02*
X1179Y404D01*
X0Y403D02*
X7Y403D01*
X1172Y403D02*
X1179Y403D01*
X0Y402D02*
X7Y402D01*
X1172Y402D02*
X1179Y402D01*
X0Y401D02*
X7Y401D01*
X1172Y401D02*
X1179Y401D01*
X0Y400D02*
X7Y400D01*
X280Y400D02*
X289Y400D01*
X1172Y400D02*
X1179Y400D01*
X0Y399D02*
X7Y399D01*
X280Y399D02*
X289Y399D01*
X1172Y399D02*
X1179Y399D01*
X0Y398D02*
X7Y398D01*
X280Y398D02*
X289Y398D01*
X1172Y398D02*
X1179Y398D01*
X0Y397D02*
X7Y397D01*
X280Y397D02*
X289Y397D01*
X1172Y397D02*
X1179Y397D01*
X0Y396D02*
X7Y396D01*
X280Y396D02*
X289Y396D01*
X1172Y396D02*
X1179Y396D01*
X0Y395D02*
X7Y395D01*
X280Y395D02*
X289Y395D01*
X1172Y395D02*
X1179Y395D01*
X0Y394D02*
X7Y394D01*
X280Y394D02*
X289Y394D01*
X1172Y394D02*
X1179Y394D01*
X0Y393D02*
X7Y393D01*
X280Y393D02*
X289Y393D01*
X1172Y393D02*
X1179Y393D01*
X0Y392D02*
X7Y392D01*
X280Y392D02*
X289Y392D01*
X1172Y392D02*
X1179Y392D01*
X0Y391D02*
X7Y391D01*
X280Y391D02*
X289Y391D01*
X1172Y391D02*
X1179Y391D01*
X0Y390D02*
X7Y390D01*
X280Y390D02*
X289Y390D01*
X1172Y390D02*
X1179Y390D01*
X0Y389D02*
X7Y389D01*
X280Y389D02*
X289Y389D01*
X1172Y389D02*
X1179Y389D01*
X0Y388D02*
X7Y388D01*
X280Y388D02*
X289Y388D01*
X1172Y388D02*
X1179Y388D01*
X0Y387D02*
X7Y387D01*
X280Y387D02*
X289Y387D01*
X1172Y387D02*
X1179Y387D01*
X0Y386D02*
X7Y386D01*
X280Y386D02*
X289Y386D01*
X1172Y386D02*
X1179Y386D01*
X0Y385D02*
X7Y385D01*
X280Y385D02*
X289Y385D01*
X1172Y385D02*
X1179Y385D01*
X0Y384D02*
X7Y384D01*
X280Y384D02*
X289Y384D01*
X1172Y384D02*
X1179Y384D01*
X0Y383D02*
X7Y383D01*
X280Y383D02*
X289Y383D01*
X1172Y383D02*
X1179Y383D01*
X0Y382D02*
X7Y382D01*
X280Y382D02*
X289Y382D01*
X1172Y382D02*
X1179Y382D01*
X0Y381D02*
X7Y381D01*
X280Y381D02*
X289Y381D01*
X1172Y381D02*
X1179Y381D01*
X0Y380D02*
X7Y380D01*
X280Y380D02*
X289Y380D01*
X1172Y380D02*
X1179Y380D01*
X0Y379D02*
X7Y379D01*
X280Y379D02*
X289Y379D01*
X1172Y379D02*
X1179Y379D01*
X0Y378D02*
X7Y378D01*
X280Y378D02*
X289Y378D01*
X1172Y378D02*
X1179Y378D01*
X0Y377D02*
X7Y377D01*
X280Y377D02*
X289Y377D01*
X1172Y377D02*
X1179Y377D01*
X0Y376D02*
X7Y376D01*
X280Y376D02*
X289Y376D01*
X1172Y376D02*
X1179Y376D01*
X0Y375D02*
X7Y375D01*
X280Y375D02*
X289Y375D01*
X1172Y375D02*
X1179Y375D01*
X0Y374D02*
X7Y374D01*
X280Y374D02*
X289Y374D01*
X1172Y374D02*
X1179Y374D01*
X0Y373D02*
X7Y373D01*
X280Y373D02*
X289Y373D01*
X1172Y373D02*
X1179Y373D01*
X0Y372D02*
X7Y372D01*
X280Y372D02*
X289Y372D01*
X1172Y372D02*
X1179Y372D01*
X0Y371D02*
X7Y371D01*
X280Y371D02*
X289Y371D01*
X1172Y371D02*
X1179Y371D01*
X0Y370D02*
X7Y370D01*
X280Y370D02*
X289Y370D01*
X1172Y370D02*
X1179Y370D01*
X0Y369D02*
X7Y369D01*
X280Y369D02*
X289Y369D01*
X1172Y369D02*
X1179Y369D01*
X0Y368D02*
X7Y368D01*
X280Y368D02*
X289Y368D01*
X1172Y368D02*
X1179Y368D01*
X0Y367D02*
X7Y367D01*
X280Y367D02*
X289Y367D01*
X1172Y367D02*
X1179Y367D01*
X0Y366D02*
X7Y366D01*
X280Y366D02*
X289Y366D01*
X1172Y366D02*
X1179Y366D01*
X0Y365D02*
X7Y365D01*
X280Y365D02*
X289Y365D01*
X1172Y365D02*
X1179Y365D01*
X0Y364D02*
X7Y364D01*
X280Y364D02*
X289Y364D01*
X1172Y364D02*
X1179Y364D01*
X0Y363D02*
X7Y363D01*
X280Y363D02*
X289Y363D01*
X1172Y363D02*
X1179Y363D01*
X0Y362D02*
X7Y362D01*
X280Y362D02*
X289Y362D01*
X1172Y362D02*
X1179Y362D01*
X0Y361D02*
X7Y361D01*
X280Y361D02*
X289Y361D01*
X1172Y361D02*
X1179Y361D01*
X0Y360D02*
X7Y360D01*
X280Y360D02*
X289Y360D01*
X1172Y360D02*
X1179Y360D01*
X0Y359D02*
X7Y359D01*
X280Y359D02*
X289Y359D01*
X1172Y359D02*
X1179Y359D01*
X0Y358D02*
X7Y358D01*
X280Y358D02*
X289Y358D01*
X1172Y358D02*
X1179Y358D01*
X0Y357D02*
X7Y357D01*
X280Y357D02*
X289Y357D01*
X1172Y357D02*
X1179Y357D01*
X0Y356D02*
X7Y356D01*
X280Y356D02*
X289Y356D01*
X1172Y356D02*
X1179Y356D01*
X0Y355D02*
X7Y355D01*
X280Y355D02*
X289Y355D01*
X1172Y355D02*
X1179Y355D01*
X0Y354D02*
X7Y354D01*
X280Y354D02*
X289Y354D01*
X1172Y354D02*
X1179Y354D01*
X0Y353D02*
X7Y353D01*
X280Y353D02*
X289Y353D01*
X1172Y353D02*
X1179Y353D01*
X0Y352D02*
X7Y352D01*
X280Y352D02*
X280Y352D01*
X289Y352D02*
X289Y352D01*
X1172Y352D02*
X1179Y352D01*
X0Y351D02*
X7Y351D01*
X1172Y351D02*
X1179Y351D01*
X0Y350D02*
X7Y350D01*
X1172Y350D02*
X1179Y350D01*
X0Y349D02*
X7Y349D01*
X1172Y349D02*
X1179Y349D01*
X0Y348D02*
X7Y348D01*
X1172Y348D02*
X1179Y348D01*
X0Y347D02*
X7Y347D01*
X1172Y347D02*
X1179Y347D01*
X0Y346D02*
X7Y346D01*
X1172Y346D02*
X1179Y346D01*
X0Y345D02*
X7Y345D01*
X1172Y345D02*
X1179Y345D01*
X0Y344D02*
X7Y344D01*
X1172Y344D02*
X1179Y344D01*
X0Y343D02*
X7Y343D01*
X1172Y343D02*
X1179Y343D01*
X0Y342D02*
X7Y342D01*
X1172Y342D02*
X1179Y342D01*
X0Y341D02*
X7Y341D01*
X1172Y341D02*
X1179Y341D01*
X0Y340D02*
X7Y340D01*
X1172Y340D02*
X1179Y340D01*
X0Y339D02*
X7Y339D01*
X1172Y339D02*
X1179Y339D01*
X0Y338D02*
X7Y338D01*
X1172Y338D02*
X1179Y338D01*
X0Y337D02*
X7Y337D01*
X1172Y337D02*
X1179Y337D01*
X0Y336D02*
X7Y336D01*
X1172Y336D02*
X1179Y336D01*
X0Y335D02*
X7Y335D01*
X1172Y335D02*
X1179Y335D01*
X0Y334D02*
X7Y334D01*
X1172Y334D02*
X1179Y334D01*
X0Y333D02*
X7Y333D01*
X1172Y333D02*
X1179Y333D01*
X0Y332D02*
X7Y332D01*
X1172Y332D02*
X1179Y332D01*
X0Y331D02*
X7Y331D01*
X1172Y331D02*
X1179Y331D01*
X0Y330D02*
X7Y330D01*
X1172Y330D02*
X1179Y330D01*
X0Y329D02*
X7Y329D01*
X1172Y329D02*
X1179Y329D01*
X0Y328D02*
X7Y328D01*
X1172Y328D02*
X1179Y328D01*
X0Y327D02*
X7Y327D01*
X1172Y327D02*
X1179Y327D01*
X0Y326D02*
X7Y326D01*
X1172Y326D02*
X1179Y326D01*
X0Y325D02*
X7Y325D01*
X1172Y325D02*
X1179Y325D01*
X0Y324D02*
X7Y324D01*
X1172Y324D02*
X1179Y324D01*
X0Y323D02*
X7Y323D01*
X1172Y323D02*
X1179Y323D01*
X0Y322D02*
X7Y322D01*
X1172Y322D02*
X1179Y322D01*
X0Y321D02*
X7Y321D01*
X1172Y321D02*
X1179Y321D01*
X0Y320D02*
X7Y320D01*
X1172Y320D02*
X1179Y320D01*
X0Y319D02*
X7Y319D01*
X1172Y319D02*
X1179Y319D01*
X0Y318D02*
X7Y318D01*
X1172Y318D02*
X1179Y318D01*
X0Y317D02*
X7Y317D01*
X1172Y317D02*
X1179Y317D01*
X0Y316D02*
X7Y316D01*
X1172Y316D02*
X1179Y316D01*
X0Y315D02*
X7Y315D01*
X1172Y315D02*
X1179Y315D01*
X0Y314D02*
X7Y314D01*
X1172Y314D02*
X1179Y314D01*
X0Y313D02*
X7Y313D01*
X1172Y313D02*
X1179Y313D01*
X0Y312D02*
X7Y312D01*
X1172Y312D02*
X1179Y312D01*
X0Y311D02*
X7Y311D01*
X1172Y311D02*
X1179Y311D01*
X0Y310D02*
X7Y310D01*
X1172Y310D02*
X1179Y310D01*
X0Y309D02*
X7Y309D01*
X1172Y309D02*
X1179Y309D01*
X0Y308D02*
X7Y308D01*
X1172Y308D02*
X1179Y308D01*
X0Y307D02*
X7Y307D01*
X1172Y307D02*
X1179Y307D01*
X0Y306D02*
X7Y306D01*
X1172Y306D02*
X1179Y306D01*
X0Y305D02*
X7Y305D01*
X1172Y305D02*
X1179Y305D01*
X0Y304D02*
X7Y304D01*
X1172Y304D02*
X1179Y304D01*
X0Y303D02*
X7Y303D01*
X1172Y303D02*
X1179Y303D01*
X0Y302D02*
X7Y302D01*
X1172Y302D02*
X1179Y302D01*
X0Y301D02*
X7Y301D01*
X1172Y301D02*
X1179Y301D01*
X0Y300D02*
X7Y300D01*
X180Y300D02*
X189Y300D01*
X1172Y300D02*
X1179Y300D01*
X0Y299D02*
X7Y299D01*
X180Y299D02*
X189Y299D01*
X1172Y299D02*
X1179Y299D01*
X0Y298D02*
X7Y298D01*
X180Y298D02*
X189Y298D01*
X1172Y298D02*
X1179Y298D01*
X0Y297D02*
X7Y297D01*
X180Y297D02*
X189Y297D01*
X1172Y297D02*
X1179Y297D01*
X0Y296D02*
X7Y296D01*
X180Y296D02*
X189Y296D01*
X1172Y296D02*
X1179Y296D01*
X0Y295D02*
X7Y295D01*
X180Y295D02*
X189Y295D01*
X1172Y295D02*
X1179Y295D01*
X0Y294D02*
X7Y294D01*
X180Y294D02*
X189Y294D01*
X1172Y294D02*
X1179Y294D01*
X0Y293D02*
X7Y293D01*
X180Y293D02*
X189Y293D01*
X1172Y293D02*
X1179Y293D01*
X0Y292D02*
X7Y292D01*
X180Y292D02*
X189Y292D01*
X1172Y292D02*
X1179Y292D01*
X0Y291D02*
X7Y291D01*
X180Y291D02*
X189Y291D01*
X1172Y291D02*
X1179Y291D01*
X0Y290D02*
X7Y290D01*
X180Y290D02*
X189Y290D01*
X1172Y290D02*
X1179Y290D01*
X0Y289D02*
X7Y289D01*
X180Y289D02*
X189Y289D01*
X1172Y289D02*
X1179Y289D01*
X0Y288D02*
X7Y288D01*
X180Y288D02*
X189Y288D01*
X1172Y288D02*
X1179Y288D01*
X0Y287D02*
X7Y287D01*
X180Y287D02*
X189Y287D01*
X1172Y287D02*
X1179Y287D01*
X0Y286D02*
X7Y286D01*
X180Y286D02*
X189Y286D01*
X1172Y286D02*
X1179Y286D01*
X0Y285D02*
X7Y285D01*
X180Y285D02*
X189Y285D01*
X1172Y285D02*
X1179Y285D01*
X0Y284D02*
X7Y284D01*
X180Y284D02*
X189Y284D01*
X1172Y284D02*
X1179Y284D01*
X0Y283D02*
X7Y283D01*
X180Y283D02*
X189Y283D01*
X1172Y283D02*
X1179Y283D01*
X0Y282D02*
X7Y282D01*
X180Y282D02*
X189Y282D01*
X1172Y282D02*
X1179Y282D01*
X0Y281D02*
X7Y281D01*
X180Y281D02*
X189Y281D01*
X1172Y281D02*
X1179Y281D01*
X0Y280D02*
X7Y280D01*
X180Y280D02*
X189Y280D01*
X1172Y280D02*
X1179Y280D01*
X0Y279D02*
X7Y279D01*
X180Y279D02*
X189Y279D01*
X1172Y279D02*
X1179Y279D01*
X0Y278D02*
X7Y278D01*
X180Y278D02*
X189Y278D01*
X1172Y278D02*
X1179Y278D01*
X0Y277D02*
X7Y277D01*
X180Y277D02*
X189Y277D01*
X1172Y277D02*
X1179Y277D01*
X0Y276D02*
X7Y276D01*
X180Y276D02*
X189Y276D01*
X1172Y276D02*
X1179Y276D01*
X0Y275D02*
X7Y275D01*
X180Y275D02*
X189Y275D01*
X1172Y275D02*
X1179Y275D01*
X0Y274D02*
X7Y274D01*
X180Y274D02*
X189Y274D01*
X1172Y274D02*
X1179Y274D01*
X0Y273D02*
X7Y273D01*
X180Y273D02*
X189Y273D01*
X1172Y273D02*
X1179Y273D01*
X0Y272D02*
X7Y272D01*
X180Y272D02*
X189Y272D01*
X1172Y272D02*
X1179Y272D01*
X0Y271D02*
X7Y271D01*
X180Y271D02*
X189Y271D01*
X1172Y271D02*
X1179Y271D01*
X0Y270D02*
X7Y270D01*
X180Y270D02*
X189Y270D01*
X1172Y270D02*
X1179Y270D01*
X0Y269D02*
X7Y269D01*
X180Y269D02*
X189Y269D01*
X1172Y269D02*
X1179Y269D01*
X0Y268D02*
X7Y268D01*
X180Y268D02*
X189Y268D01*
X1172Y268D02*
X1179Y268D01*
X0Y267D02*
X7Y267D01*
X180Y267D02*
X189Y267D01*
X1172Y267D02*
X1179Y267D01*
X0Y266D02*
X7Y266D01*
X180Y266D02*
X189Y266D01*
X1172Y266D02*
X1179Y266D01*
X0Y265D02*
X7Y265D01*
X180Y265D02*
X189Y265D01*
X1172Y265D02*
X1179Y265D01*
X0Y264D02*
X7Y264D01*
X180Y264D02*
X189Y264D01*
X1172Y264D02*
X1179Y264D01*
X0Y263D02*
X7Y263D01*
X180Y263D02*
X189Y263D01*
X1172Y263D02*
X1179Y263D01*
X0Y262D02*
X7Y262D01*
X180Y262D02*
X189Y262D01*
X1172Y262D02*
X1179Y262D01*
X0Y261D02*
X7Y261D01*
X180Y261D02*
X189Y261D01*
X1172Y261D02*
X1179Y261D01*
X0Y260D02*
X7Y260D01*
X180Y260D02*
X189Y260D01*
X1172Y260D02*
X1179Y260D01*
X0Y259D02*
X7Y259D01*
X180Y259D02*
X189Y259D01*
X1172Y259D02*
X1179Y259D01*
X0Y258D02*
X7Y258D01*
X180Y258D02*
X189Y258D01*
X1172Y258D02*
X1179Y258D01*
X0Y257D02*
X7Y257D01*
X180Y257D02*
X189Y257D01*
X1172Y257D02*
X1179Y257D01*
X0Y256D02*
X7Y256D01*
X180Y256D02*
X189Y256D01*
X1172Y256D02*
X1179Y256D01*
X0Y255D02*
X7Y255D01*
X180Y255D02*
X189Y255D01*
X1172Y255D02*
X1179Y255D01*
X0Y254D02*
X7Y254D01*
X180Y254D02*
X189Y254D01*
X1172Y254D02*
X1179Y254D01*
X0Y253D02*
X7Y253D01*
X180Y253D02*
X189Y253D01*
X1172Y253D02*
X1179Y253D01*
X0Y252D02*
X7Y252D01*
X180Y252D02*
X180Y252D01*
X1172Y252D02*
X1179Y252D01*
X0Y251D02*
X7Y251D01*
X1172Y251D02*
X1179Y251D01*
X0Y250D02*
X7Y250D01*
X1172Y250D02*
X1179Y250D01*
X0Y249D02*
X7Y249D01*
X1172Y249D02*
X1179Y249D01*
X0Y248D02*
X7Y248D01*
X1172Y248D02*
X1179Y248D01*
X0Y247D02*
X7Y247D01*
X1172Y247D02*
X1179Y247D01*
X0Y246D02*
X7Y246D01*
X1172Y246D02*
X1179Y246D01*
X0Y245D02*
X7Y245D01*
X1172Y245D02*
X1179Y245D01*
X0Y244D02*
X7Y244D01*
X1172Y244D02*
X1179Y244D01*
X0Y243D02*
X7Y243D01*
X1172Y243D02*
X1179Y243D01*
X0Y242D02*
X7Y242D01*
X1172Y242D02*
X1179Y242D01*
X0Y241D02*
X7Y241D01*
X1172Y241D02*
X1179Y241D01*
X0Y240D02*
X7Y240D01*
X1172Y240D02*
X1179Y240D01*
X0Y239D02*
X7Y239D01*
X1172Y239D02*
X1179Y239D01*
X0Y238D02*
X7Y238D01*
X1172Y238D02*
X1179Y238D01*
X0Y237D02*
X7Y237D01*
X1172Y237D02*
X1179Y237D01*
X0Y236D02*
X7Y236D01*
X1172Y236D02*
X1179Y236D01*
X0Y235D02*
X7Y235D01*
X1172Y235D02*
X1179Y235D01*
X0Y234D02*
X7Y234D01*
X1172Y234D02*
X1179Y234D01*
X0Y233D02*
X7Y233D01*
X1172Y233D02*
X1179Y233D01*
X0Y232D02*
X7Y232D01*
X1172Y232D02*
X1179Y232D01*
X0Y231D02*
X7Y231D01*
X1172Y231D02*
X1179Y231D01*
X0Y230D02*
X7Y230D01*
X1172Y230D02*
X1179Y230D01*
X0Y229D02*
X7Y229D01*
X1172Y229D02*
X1179Y229D01*
X0Y228D02*
X7Y228D01*
X1172Y228D02*
X1179Y228D01*
X0Y227D02*
X7Y227D01*
X1172Y227D02*
X1179Y227D01*
X0Y226D02*
X7Y226D01*
X1172Y226D02*
X1179Y226D01*
X0Y225D02*
X7Y225D01*
X1172Y225D02*
X1179Y225D01*
X0Y224D02*
X7Y224D01*
X1172Y224D02*
X1179Y224D01*
X0Y223D02*
X7Y223D01*
X1172Y223D02*
X1179Y223D01*
X0Y222D02*
X7Y222D01*
X1172Y222D02*
X1179Y222D01*
X0Y221D02*
X7Y221D01*
X1172Y221D02*
X1179Y221D01*
X0Y220D02*
X7Y220D01*
X1172Y220D02*
X1179Y220D01*
X0Y219D02*
X7Y219D01*
X1172Y219D02*
X1179Y219D01*
X0Y218D02*
X7Y218D01*
X1172Y218D02*
X1179Y218D01*
X0Y217D02*
X7Y217D01*
X1172Y217D02*
X1179Y217D01*
X0Y216D02*
X7Y216D01*
X1172Y216D02*
X1179Y216D01*
X0Y215D02*
X7Y215D01*
X1172Y215D02*
X1179Y215D01*
X0Y214D02*
X7Y214D01*
X1172Y214D02*
X1179Y214D01*
X0Y213D02*
X7Y213D01*
X1172Y213D02*
X1179Y213D01*
X0Y212D02*
X7Y212D01*
X1172Y212D02*
X1179Y212D01*
X0Y211D02*
X7Y211D01*
X1172Y211D02*
X1179Y211D01*
X0Y210D02*
X7Y210D01*
X1172Y210D02*
X1179Y210D01*
X0Y209D02*
X7Y209D01*
X1172Y209D02*
X1179Y209D01*
X0Y208D02*
X7Y208D01*
X1172Y208D02*
X1179Y208D01*
X0Y207D02*
X7Y207D01*
X1172Y207D02*
X1179Y207D01*
X0Y206D02*
X7Y206D01*
X1172Y206D02*
X1179Y206D01*
X0Y205D02*
X7Y205D01*
X1172Y205D02*
X1179Y205D01*
X0Y204D02*
X7Y204D01*
X1172Y204D02*
X1179Y204D01*
X0Y203D02*
X7Y203D01*
X1172Y203D02*
X1179Y203D01*
X0Y202D02*
X7Y202D01*
X1172Y202D02*
X1179Y202D01*
X0Y201D02*
X7Y201D01*
X1172Y201D02*
X1179Y201D01*
X0Y200D02*
X7Y200D01*
X1172Y200D02*
X1179Y200D01*
X0Y199D02*
X7Y199D01*
X1172Y199D02*
X1179Y199D01*
X0Y198D02*
X7Y198D01*
X1172Y198D02*
X1179Y198D01*
X0Y197D02*
X7Y197D01*
X1172Y197D02*
X1179Y197D01*
X0Y196D02*
X7Y196D01*
X1172Y196D02*
X1179Y196D01*
X0Y195D02*
X7Y195D01*
X1172Y195D02*
X1179Y195D01*
X0Y194D02*
X7Y194D01*
X1172Y194D02*
X1179Y194D01*
X0Y193D02*
X7Y193D01*
X1172Y193D02*
X1179Y193D01*
X0Y192D02*
X7Y192D01*
X1172Y192D02*
X1179Y192D01*
X0Y191D02*
X7Y191D01*
X1172Y191D02*
X1179Y191D01*
X0Y190D02*
X7Y190D01*
X1172Y190D02*
X1179Y190D01*
X0Y189D02*
X7Y189D01*
X1172Y189D02*
X1179Y189D01*
X0Y188D02*
X7Y188D01*
X1172Y188D02*
X1179Y188D01*
X0Y187D02*
X7Y187D01*
X1172Y187D02*
X1179Y187D01*
X0Y186D02*
X7Y186D01*
X1172Y186D02*
X1179Y186D01*
X0Y185D02*
X7Y185D01*
X1172Y185D02*
X1179Y185D01*
X0Y184D02*
X7Y184D01*
X1172Y184D02*
X1179Y184D01*
X0Y183D02*
X7Y183D01*
X1172Y183D02*
X1179Y183D01*
X0Y182D02*
X7Y182D01*
X1172Y182D02*
X1179Y182D01*
X0Y181D02*
X7Y181D01*
X1172Y181D02*
X1179Y181D01*
X0Y180D02*
X7Y180D01*
X1172Y180D02*
X1179Y180D01*
X0Y179D02*
X7Y179D01*
X1172Y179D02*
X1179Y179D01*
X0Y178D02*
X7Y178D01*
X1172Y178D02*
X1179Y178D01*
X0Y177D02*
X7Y177D01*
X1172Y177D02*
X1179Y177D01*
X0Y176D02*
X7Y176D01*
X1172Y176D02*
X1179Y176D01*
X0Y175D02*
X7Y175D01*
X1172Y175D02*
X1179Y175D01*
X0Y174D02*
X7Y174D01*
X1172Y174D02*
X1179Y174D01*
X0Y173D02*
X7Y173D01*
X1172Y173D02*
X1179Y173D01*
X0Y172D02*
X7Y172D01*
X1172Y172D02*
X1179Y172D01*
X0Y171D02*
X7Y171D01*
X1172Y171D02*
X1179Y171D01*
X0Y170D02*
X7Y170D01*
X1172Y170D02*
X1179Y170D01*
X0Y169D02*
X7Y169D01*
X1172Y169D02*
X1179Y169D01*
X0Y168D02*
X7Y168D01*
X1172Y168D02*
X1179Y168D01*
X0Y167D02*
X7Y167D01*
X1172Y167D02*
X1179Y167D01*
X0Y166D02*
X7Y166D01*
X1172Y166D02*
X1179Y166D01*
X0Y165D02*
X7Y165D01*
X1172Y165D02*
X1179Y165D01*
X0Y164D02*
X7Y164D01*
X1172Y164D02*
X1179Y164D01*
X0Y163D02*
X7Y163D01*
X1172Y163D02*
X1179Y163D01*
X0Y162D02*
X7Y162D01*
X1172Y162D02*
X1179Y162D01*
X0Y161D02*
X7Y161D01*
X1172Y161D02*
X1179Y161D01*
X0Y160D02*
X7Y160D01*
X1172Y160D02*
X1179Y160D01*
X0Y159D02*
X7Y159D01*
X1172Y159D02*
X1179Y159D01*
X0Y158D02*
X7Y158D01*
X1172Y158D02*
X1179Y158D01*
X0Y157D02*
X7Y157D01*
X1172Y157D02*
X1179Y157D01*
X0Y156D02*
X7Y156D01*
X1172Y156D02*
X1179Y156D01*
X0Y155D02*
X7Y155D01*
X1172Y155D02*
X1179Y155D01*
X0Y154D02*
X7Y154D01*
X1172Y154D02*
X1179Y154D01*
X0Y153D02*
X7Y153D01*
X1172Y153D02*
X1179Y153D01*
X0Y152D02*
X7Y152D01*
X1172Y152D02*
X1179Y152D01*
X0Y151D02*
X7Y151D01*
X1172Y151D02*
X1179Y151D01*
X0Y150D02*
X7Y150D01*
X1172Y150D02*
X1179Y150D01*
X0Y149D02*
X7Y149D01*
X1172Y149D02*
X1179Y149D01*
X0Y148D02*
X7Y148D01*
X1172Y148D02*
X1179Y148D01*
X0Y147D02*
X7Y147D01*
X1172Y147D02*
X1179Y147D01*
X0Y146D02*
X7Y146D01*
X1172Y146D02*
X1179Y146D01*
X0Y145D02*
X7Y145D01*
X1172Y145D02*
X1179Y145D01*
X0Y144D02*
X7Y144D01*
X1172Y144D02*
X1179Y144D01*
X0Y143D02*
X7Y143D01*
X1172Y143D02*
X1179Y143D01*
X0Y142D02*
X7Y142D01*
X1172Y142D02*
X1179Y142D01*
X0Y141D02*
X7Y141D01*
X1172Y141D02*
X1179Y141D01*
X0Y140D02*
X7Y140D01*
X1172Y140D02*
X1179Y140D01*
X0Y139D02*
X7Y139D01*
X1172Y139D02*
X1179Y139D01*
X0Y138D02*
X7Y138D01*
X1172Y138D02*
X1179Y138D01*
X0Y137D02*
X7Y137D01*
X1172Y137D02*
X1179Y137D01*
X0Y136D02*
X7Y136D01*
X1172Y136D02*
X1179Y136D01*
X0Y135D02*
X7Y135D01*
X1172Y135D02*
X1179Y135D01*
X0Y134D02*
X7Y134D01*
X1172Y134D02*
X1179Y134D01*
X0Y133D02*
X7Y133D01*
X1172Y133D02*
X1179Y133D01*
X0Y132D02*
X7Y132D01*
X1172Y132D02*
X1179Y132D01*
X0Y131D02*
X7Y131D01*
X1172Y131D02*
X1179Y131D01*
X0Y130D02*
X7Y130D01*
X1172Y130D02*
X1179Y130D01*
X0Y129D02*
X7Y129D01*
X1172Y129D02*
X1179Y129D01*
X0Y128D02*
X7Y128D01*
X1172Y128D02*
X1179Y128D01*
X0Y127D02*
X7Y127D01*
X1172Y127D02*
X1179Y127D01*
X0Y126D02*
X7Y126D01*
X1172Y126D02*
X1179Y126D01*
X0Y125D02*
X7Y125D01*
X1172Y125D02*
X1179Y125D01*
X0Y124D02*
X7Y124D01*
X1172Y124D02*
X1179Y124D01*
X0Y123D02*
X7Y123D01*
X1172Y123D02*
X1179Y123D01*
X0Y122D02*
X7Y122D01*
X967Y122D02*
X1008Y122D01*
X1172Y122D02*
X1179Y122D01*
X0Y121D02*
X7Y121D01*
X965Y121D02*
X1010Y121D01*
X1172Y121D02*
X1179Y121D01*
X0Y120D02*
X7Y120D01*
X964Y120D02*
X1011Y120D01*
X1172Y120D02*
X1179Y120D01*
X0Y119D02*
X7Y119D01*
X964Y119D02*
X1012Y119D01*
X1172Y119D02*
X1179Y119D01*
X0Y118D02*
X7Y118D01*
X963Y118D02*
X1012Y118D01*
X1172Y118D02*
X1179Y118D01*
X0Y117D02*
X7Y117D01*
X963Y117D02*
X1012Y117D01*
X1172Y117D02*
X1179Y117D01*
X0Y116D02*
X7Y116D01*
X963Y116D02*
X1012Y116D01*
X1172Y116D02*
X1179Y116D01*
X0Y115D02*
X7Y115D01*
X963Y115D02*
X1012Y115D01*
X1172Y115D02*
X1179Y115D01*
X0Y114D02*
X7Y114D01*
X963Y114D02*
X1012Y114D01*
X1172Y114D02*
X1179Y114D01*
X0Y113D02*
X7Y113D01*
X963Y113D02*
X1012Y113D01*
X1172Y113D02*
X1179Y113D01*
X0Y112D02*
X7Y112D01*
X963Y112D02*
X1012Y112D01*
X1172Y112D02*
X1179Y112D01*
X0Y111D02*
X7Y111D01*
X964Y111D02*
X1012Y111D01*
X1172Y111D02*
X1179Y111D01*
X0Y110D02*
X7Y110D01*
X964Y110D02*
X1011Y110D01*
X1172Y110D02*
X1179Y110D01*
X0Y109D02*
X7Y109D01*
X965Y109D02*
X1010Y109D01*
X1172Y109D02*
X1179Y109D01*
X0Y108D02*
X7Y108D01*
X968Y108D02*
X1008Y108D01*
X1172Y108D02*
X1179Y108D01*
X0Y107D02*
X7Y107D01*
X1172Y107D02*
X1179Y107D01*
X0Y106D02*
X7Y106D01*
X1172Y106D02*
X1179Y106D01*
X0Y105D02*
X7Y105D01*
X1172Y105D02*
X1179Y105D01*
X0Y104D02*
X7Y104D01*
X1172Y104D02*
X1179Y104D01*
X0Y103D02*
X7Y103D01*
X1172Y103D02*
X1179Y103D01*
X0Y102D02*
X7Y102D01*
X1172Y102D02*
X1179Y102D01*
X0Y101D02*
X7Y101D01*
X1172Y101D02*
X1179Y101D01*
X0Y100D02*
X7Y100D01*
X1172Y100D02*
X1179Y100D01*
X0Y99D02*
X7Y99D01*
X1172Y99D02*
X1179Y99D01*
X0Y98D02*
X7Y98D01*
X1172Y98D02*
X1179Y98D01*
X0Y97D02*
X7Y97D01*
X1172Y97D02*
X1179Y97D01*
X0Y96D02*
X7Y96D01*
X1172Y96D02*
X1179Y96D01*
X0Y95D02*
X7Y95D01*
X1172Y95D02*
X1179Y95D01*
X0Y94D02*
X7Y94D01*
X1172Y94D02*
X1179Y94D01*
X0Y93D02*
X7Y93D01*
X1172Y93D02*
X1179Y93D01*
X0Y92D02*
X7Y92D01*
X1172Y92D02*
X1179Y92D01*
X0Y91D02*
X7Y91D01*
X1172Y91D02*
X1179Y91D01*
X0Y90D02*
X7Y90D01*
X1172Y90D02*
X1179Y90D01*
X0Y89D02*
X7Y89D01*
X1172Y89D02*
X1179Y89D01*
X0Y88D02*
X7Y88D01*
X1172Y88D02*
X1179Y88D01*
X0Y87D02*
X7Y87D01*
X1172Y87D02*
X1179Y87D01*
X0Y86D02*
X7Y86D01*
X1172Y86D02*
X1179Y86D01*
X0Y85D02*
X7Y85D01*
X1172Y85D02*
X1179Y85D01*
X0Y84D02*
X7Y84D01*
X1172Y84D02*
X1179Y84D01*
X0Y83D02*
X7Y83D01*
X1172Y83D02*
X1179Y83D01*
X0Y82D02*
X7Y82D01*
X1172Y82D02*
X1179Y82D01*
X0Y81D02*
X7Y81D01*
X1172Y81D02*
X1179Y81D01*
X0Y80D02*
X7Y80D01*
X1172Y80D02*
X1179Y80D01*
X0Y79D02*
X7Y79D01*
X1172Y79D02*
X1179Y79D01*
X0Y78D02*
X7Y78D01*
X1172Y78D02*
X1179Y78D01*
X0Y77D02*
X7Y77D01*
X1172Y77D02*
X1179Y77D01*
X0Y76D02*
X7Y76D01*
X1172Y76D02*
X1179Y76D01*
X0Y75D02*
X7Y75D01*
X1172Y75D02*
X1179Y75D01*
X0Y74D02*
X7Y74D01*
X1172Y74D02*
X1179Y74D01*
X0Y73D02*
X7Y73D01*
X1172Y73D02*
X1179Y73D01*
X0Y72D02*
X7Y72D01*
X1172Y72D02*
X1179Y72D01*
X0Y71D02*
X7Y71D01*
X1172Y71D02*
X1179Y71D01*
X0Y70D02*
X7Y70D01*
X1172Y70D02*
X1179Y70D01*
X0Y69D02*
X7Y69D01*
X1172Y69D02*
X1179Y69D01*
X0Y68D02*
X7Y68D01*
X1172Y68D02*
X1179Y68D01*
X0Y67D02*
X7Y67D01*
X1172Y67D02*
X1179Y67D01*
X0Y66D02*
X7Y66D01*
X1172Y66D02*
X1179Y66D01*
X0Y65D02*
X7Y65D01*
X1172Y65D02*
X1179Y65D01*
X0Y64D02*
X7Y64D01*
X1172Y64D02*
X1179Y64D01*
X0Y63D02*
X7Y63D01*
X1172Y63D02*
X1179Y63D01*
X0Y62D02*
X7Y62D01*
X1172Y62D02*
X1179Y62D01*
X0Y61D02*
X7Y61D01*
X1172Y61D02*
X1179Y61D01*
X0Y60D02*
X7Y60D01*
X1172Y60D02*
X1179Y60D01*
X0Y59D02*
X7Y59D01*
X1172Y59D02*
X1179Y59D01*
X0Y58D02*
X7Y58D01*
X1172Y58D02*
X1179Y58D01*
X0Y57D02*
X7Y57D01*
X1172Y57D02*
X1179Y57D01*
X0Y56D02*
X7Y56D01*
X1172Y56D02*
X1179Y56D01*
X0Y55D02*
X7Y55D01*
X1172Y55D02*
X1179Y55D01*
X0Y54D02*
X7Y54D01*
X1172Y54D02*
X1179Y54D01*
X0Y53D02*
X7Y53D01*
X1172Y53D02*
X1179Y53D01*
X0Y52D02*
X7Y52D01*
X1172Y52D02*
X1179Y52D01*
X0Y51D02*
X7Y51D01*
X1172Y51D02*
X1179Y51D01*
X0Y50D02*
X7Y50D01*
X1172Y50D02*
X1179Y50D01*
X0Y49D02*
X7Y49D01*
X1172Y49D02*
X1179Y49D01*
X0Y48D02*
X7Y48D01*
X1172Y48D02*
X1179Y48D01*
X0Y47D02*
X7Y47D01*
X1172Y47D02*
X1179Y47D01*
X0Y46D02*
X7Y46D01*
X1172Y46D02*
X1179Y46D01*
X0Y45D02*
X7Y45D01*
X1172Y45D02*
X1179Y45D01*
X0Y44D02*
X7Y44D01*
X1172Y44D02*
X1179Y44D01*
X0Y43D02*
X7Y43D01*
X1172Y43D02*
X1179Y43D01*
X0Y42D02*
X7Y42D01*
X1172Y42D02*
X1179Y42D01*
X0Y41D02*
X7Y41D01*
X1172Y41D02*
X1179Y41D01*
X0Y40D02*
X7Y40D01*
X1172Y40D02*
X1179Y40D01*
X0Y39D02*
X7Y39D01*
X1172Y39D02*
X1179Y39D01*
X0Y38D02*
X7Y38D01*
X1172Y38D02*
X1179Y38D01*
X0Y37D02*
X7Y37D01*
X1172Y37D02*
X1179Y37D01*
X0Y36D02*
X7Y36D01*
X1172Y36D02*
X1179Y36D01*
X0Y35D02*
X7Y35D01*
X1172Y35D02*
X1179Y35D01*
X0Y34D02*
X7Y34D01*
X1172Y34D02*
X1179Y34D01*
X0Y33D02*
X7Y33D01*
X1172Y33D02*
X1179Y33D01*
X0Y32D02*
X7Y32D01*
X1172Y32D02*
X1179Y32D01*
X0Y31D02*
X7Y31D01*
X1172Y31D02*
X1179Y31D01*
X0Y30D02*
X7Y30D01*
X1172Y30D02*
X1179Y30D01*
X0Y29D02*
X7Y29D01*
X1172Y29D02*
X1179Y29D01*
X0Y28D02*
X7Y28D01*
X1172Y28D02*
X1179Y28D01*
X0Y27D02*
X7Y27D01*
X1172Y27D02*
X1179Y27D01*
X0Y26D02*
X7Y26D01*
X1172Y26D02*
X1179Y26D01*
X0Y25D02*
X7Y25D01*
X1172Y25D02*
X1179Y25D01*
X0Y24D02*
X7Y24D01*
X1172Y24D02*
X1179Y24D01*
X0Y23D02*
X7Y23D01*
X1172Y23D02*
X1179Y23D01*
X0Y22D02*
X7Y22D01*
X1172Y22D02*
X1179Y22D01*
X0Y21D02*
X7Y21D01*
X1172Y21D02*
X1179Y21D01*
X0Y20D02*
X7Y20D01*
X1172Y20D02*
X1179Y20D01*
X0Y19D02*
X7Y19D01*
X1172Y19D02*
X1179Y19D01*
X0Y18D02*
X7Y18D01*
X1172Y18D02*
X1179Y18D01*
X0Y17D02*
X7Y17D01*
X1172Y17D02*
X1179Y17D01*
X0Y16D02*
X7Y16D01*
X1172Y16D02*
X1179Y16D01*
X0Y15D02*
X7Y15D01*
X1172Y15D02*
X1179Y15D01*
X0Y14D02*
X7Y14D01*
X1172Y14D02*
X1179Y14D01*
X0Y13D02*
X7Y13D01*
X1172Y13D02*
X1179Y13D01*
X0Y12D02*
X7Y12D01*
X1172Y12D02*
X1179Y12D01*
X0Y11D02*
X7Y11D01*
X1172Y11D02*
X1179Y11D01*
X0Y10D02*
X7Y10D01*
X1172Y10D02*
X1179Y10D01*
X0Y9D02*
X7Y9D01*
X1172Y9D02*
X1179Y9D01*
X0Y8D02*
X1179Y8D01*
X0Y7D02*
X1179Y7D01*
X0Y6D02*
X1179Y6D01*
X0Y5D02*
X1179Y5D01*
X0Y4D02*
X1179Y4D01*
X0Y3D02*
X1179Y3D01*
X0Y2D02*
X1179Y2D01*
X0Y1D02*
X1179Y1D01*
D02*
G04 End of Silk1*
M02*